{
  "source": "C:\\Users\\Peter\\Desktop\\stuff\\MIUN\\quantitative_research\\video_compression\\videos\\BVI-HD\\BVI-HD_CDVL_videos\\ORIG\\MartialArts_1920x1080_60fps.mp4",
  "output": "C:\\Users\\Peter\\Desktop\\stuff\\MIUN\\quantitative_research\\video_compression\\compressed_videos\\BVI-HD\\hevc\\4\\MartialArts_1920x1080_60fps_hevc.mp4",
  "codec": "hevc",
  "ok": "Input #0, mov,mp4,m4a,3gp,3g2,mj2, from 'C:\\Users\\Peter\\Desktop\\stuff\\MIUN\\quantitative_research\\video_compression\\videos\\BVI-HD\\BVI-HD_CDVL_videos\\ORIG\\MartialArts_1920x1080_60fps.mp4':\n  Metadata:\n    major_brand     : isom\n    minor_version   : 512\n    compatible_brands: isomiso2avc1mp41\n    encoder         : Lavf54.28.101\n  Duration: 00:00:05.00, start: 0.000000, bitrate: 120609 kb/s\n  Stream #0:0[0x1](und): Video: h264 (High 4:4:4 Predictive) (avc1 / 0x31637661), yuv420p(progressive), 1920x1080, 120605 kb/s, 60 fps, 60 tbr, 60 tbn (default)\n    Metadata:\n      handler_name    : VideoHandler\n      vendor_id       : [0][0][0][0]\n[out#0/mp4 @ 0000025f02eaabc0] Codec AVOption b:a (set bitrate (in bits/s)) has not been used for any stream. The most likely reason is either wrong type (e.g. a video option with no video streams) or that it is a private option of some decoder which was not actually used for any stream.\nStream mapping:\n  Stream #0:0 -> #0:0 (h264 (native) -> hevc (libx265))\nPress [q] to stop, [?] for help\n[libx265 @ 0000025f04aa0940] Unknown option: \"aq-mode.\nx265 [info]: HEVC encoder version 4.1+190-8f11c33ac\nx265 [info]: build info [Windows][GCC 15.1.0][64 bit] 10bit\nx265 [info]: using cpu capabilities: MMX2 SSE2Fast LZCNT SSSE3 SSE4.2 AVX FMA3 BMI2 AVX2\nx265 [info]: Main 10 profile, Level-4.1 (Main tier)\nx265 [info]: Thread pool created using 12 threads\nx265 [info]: Slices                              : 1\nx265 [info]: frame threads / pool features       : 3 / wpp(17 rows)\nx265 [info]: Coding QT: max CU size, min CU size : 64 / 8\nx265 [info]: Residual QT: max TU size, max depth : 32 / 1 inter / 1 intra\nx265 [info]: ME / range / subpel / merge         : star / 57 / 3 / 3\nx265 [info]: Keyframe min / max / scenecut / bias  : 25 / 250 / 40 / 5.00 \nx265 [info]: Lookahead / bframes / badapt        : 25 / 4 / 2\nx265 [info]: b-pyramid / weightp / weightb       : 1 / 1 / 0\nx265 [info]: References / ref-limit  cu / depth  : 4 / on / on\nx265 [info]: AQ: mode / str / qg-size / cu-tree  : 2 / 1.0 / 32 / 1\nx265 [info]: Rate Control / qCompress            : ABR-4000 kbps / 0.60\nx265 [info]: VBV/HRD buffer / max-rate / init    : 4000 / 4000 / 0.750\nx265 [info]: tools: rect limit-modes rd=4 psy-rd=2.00 rdoq=2 psy-rdoq=1.00\nx265 [info]: tools: rskip mode=1 signhide tmvp strong-intra-smoothing lslices=4\nx265 [info]: tools: deblock sao dhdr10-info\nOutput #0, mp4, to 'C:\\Users\\Peter\\Desktop\\stuff\\MIUN\\quantitative_research\\video_compression\\compressed_videos\\BVI-HD\\hevc\\4\\MartialArts_1920x1080_60fps_hevc.mp4':\n  Metadata:\n    major_brand     : isom\n    minor_version   : 512\n    compatible_brands: isomiso2avc1mp41\n    encoder         : Lavf62.3.100\n  Stream #0:0(und): Video: hevc (hev1 / 0x31766568), yuv420p10le(tv, progressive), 1920x1080, q=2-31, 4000 kb/s, 60 fps, 15360 tbn (default)\n    Metadata:\n      encoder         : Lavc62.11.100 libx265\n      handler_name    : VideoHandler\n      vendor_id       : [0][0][0][0]\n    Side data:\n      cpb: bitrate max/min/avg: 4000000/0/4000000 buffer size: 4000000 vbv_delay: N/A\nframe=    0 fps=0.0 q=0.0 size=       0KiB time=N/A bitrate=N/A speed=N/A elapsed=0:00:00.52    \nframe=    0 fps=0.0 q=0.0 size=       0KiB time=N/A bitrate=N/A speed=N/A elapsed=0:00:01.05    \nframe=    0 fps=0.0 q=0.0 size=       0KiB time=N/A bitrate=N/A speed=N/A elapsed=0:00:01.57    \nframe=    0 fps=0.0 q=0.0 size=       0KiB time=N/A bitrate=N/A speed=N/A elapsed=0:00:02.08    \nframe=    0 fps=0.0 q=0.0 size=       0KiB time=N/A bitrate=N/A speed=N/A elapsed=0:00:02.60    \nframe=    0 fps=0.0 q=0.0 size=       0KiB time=N/A bitrate=N/A speed=N/A elapsed=0:00:03.13    \nframe=    0 fps=0.0 q=0.0 size=       0KiB time=N/A bitrate=N/A speed=N/A elapsed=0:00:03.65    \nframe=    0 fps=0.0 q=0.0 size=       0KiB time=N/A bitrate=N/A speed=N/A elapsed=0:00:04.17    \nframe=    0 fps=0.0 q=0.0 size=       0KiB time=N/A bitrate=N/A speed=N/A elapsed=0:00:04.70    \nframe=    0 fps=0.0 q=0.0 size=       0KiB time=N/A bitrate=N/A speed=N/A elapsed=0:00:05.22    \nframe=    1 fps=0.2 q=30.5 size=       0KiB time=-00:00:00.01 bitrate=N/A speed=N/A elapsed=0:00:05.73    \nframe=    2 fps=0.3 q=34.2 size=       0KiB time=00:00:00.00 bitrate=N/A speed=   0x elapsed=0:00:06.24    \nframe=    4 fps=0.6 q=33.5 size=       0KiB time=00:00:00.03 bitrate=  10.6kbits/s speed=0.00493x elapsed=0:00:06.76    \nframe=    4 fps=0.5 q=33.5 size=       0KiB time=00:00:00.03 bitrate=  10.6kbits/s speed=0.00456x elapsed=0:00:07.30    \nframe=    4 fps=0.5 q=33.5 size=       0KiB time=00:00:00.03 bitrate=  10.6kbits/s speed=0.00426x elapsed=0:00:07.81    \nframe=    5 fps=0.6 q=33.5 size=       0KiB time=00:00:00.05 bitrate=   7.0kbits/s speed=0.006x elapsed=0:00:08.32    \nframe=    6 fps=0.7 q=33.4 size=       0KiB time=00:00:00.06 bitrate=   5.3kbits/s speed=0.00753x elapsed=0:00:08.85    \nframe=    6 fps=0.6 q=33.4 size=       0KiB time=00:00:00.06 bitrate=   5.3kbits/s speed=0.0071x elapsed=0:00:09.38    \nframe=    6 fps=0.6 q=33.4 size=       0KiB time=00:00:00.06 bitrate=   5.3kbits/s speed=0.00674x elapsed=0:00:09.89    \nframe=    6 fps=0.6 q=33.4 size=       0KiB time=00:00:00.06 bitrate=   5.3kbits/s speed=0.0064x elapsed=0:00:10.42    \nframe=    7 fps=0.6 q=28.3 size=       0KiB time=00:00:00.06 bitrate=   5.3kbits/s speed=0.00606x elapsed=0:00:10.99    \nframe=    7 fps=0.6 q=28.3 size=       0KiB time=00:00:00.08 bitrate=   4.2kbits/s speed=0.0072x elapsed=0:00:11.57    \nframe=    7 fps=0.6 q=28.3 size=       0KiB time=00:00:00.08 bitrate=   4.2kbits/s speed=0.00688x elapsed=0:00:12.10    \nframe=    7 fps=0.6 q=28.3 size=       0KiB time=00:00:00.08 bitrate=   4.2kbits/s speed=0.00659x elapsed=0:00:12.64    \nframe=    7 fps=0.5 q=28.3 size=       0KiB time=00:00:00.08 bitrate=   4.2kbits/s speed=0.00632x elapsed=0:00:13.19    \nframe=    8 fps=0.6 q=29.7 size=       0KiB time=00:00:00.10 bitrate=   3.5kbits/s speed=0.00727x elapsed=0:00:13.74    \nframe=    8 fps=0.6 q=29.7 size=       0KiB time=00:00:00.10 bitrate=   3.5kbits/s speed=0.00698x elapsed=0:00:14.33    \nframe=    9 fps=0.6 q=30.5 size=       0KiB time=00:00:00.11 bitrate=   3.0kbits/s speed=0.00784x elapsed=0:00:14.87    \nframe=    9 fps=0.6 q=30.5 size=       0KiB time=00:00:00.11 bitrate=   3.0kbits/s speed=0.00757x elapsed=0:00:15.41    \nframe=    9 fps=0.6 q=30.5 size=       0KiB time=00:00:00.11 bitrate=   3.0kbits/s speed=0.00732x elapsed=0:00:15.94    \nframe=    9 fps=0.5 q=30.5 size=       0KiB time=00:00:00.11 bitrate=   3.0kbits/s speed=0.00708x elapsed=0:00:16.47    \nframe=    9 fps=0.5 q=30.5 size=       0KiB time=00:00:00.11 bitrate=   3.0kbits/s speed=0.00687x elapsed=0:00:16.99    \nframe=    9 fps=0.5 q=30.5 size=       0KiB time=00:00:00.11 bitrate=   3.0kbits/s speed=0.00665x elapsed=0:00:17.54    \nframe=    9 fps=0.5 q=30.5 size=       0KiB time=00:00:00.11 bitrate=   3.0kbits/s speed=0.00646x elapsed=0:00:18.06    \nframe=   10 fps=0.5 q=29.1 size=       0KiB time=00:00:00.13 bitrate=   2.6kbits/s speed=0.00717x elapsed=0:00:18.58    \nframe=   11 fps=0.6 q=27.3 size=       0KiB time=00:00:00.15 bitrate=   2.3kbits/s speed=0.00785x elapsed=0:00:19.10    \nframe=   11 fps=0.6 q=27.3 size=       0KiB time=00:00:00.15 bitrate=   2.3kbits/s speed=0.00765x elapsed=0:00:19.61    \nframe=   11 fps=0.5 q=27.3 size=       0KiB time=00:00:00.15 bitrate=   2.3kbits/s speed=0.00744x elapsed=0:00:20.15    \nframe=   11 fps=0.5 q=27.3 size=       0KiB time=00:00:00.15 bitrate=   2.3kbits/s speed=0.00725x elapsed=0:00:20.69    \nframe=   12 fps=0.6 q=23.2 size=       0KiB time=00:00:00.15 bitrate=   2.3kbits/s speed=0.00706x elapsed=0:00:21.23    \nframe=   12 fps=0.6 q=23.2 size=       0KiB time=00:00:00.16 bitrate=   2.1kbits/s speed=0.00765x elapsed=0:00:21.78    \nframe=   12 fps=0.5 q=23.2 size=       0KiB time=00:00:00.16 bitrate=   2.1kbits/s speed=0.00747x elapsed=0:00:22.31    \nframe=   12 fps=0.5 q=23.2 size=       0KiB time=00:00:00.16 bitrate=   2.1kbits/s speed=0.00728x elapsed=0:00:22.90    \nframe=   12 fps=0.5 q=23.2 size=       0KiB time=00:00:00.16 bitrate=   2.1kbits/s speed=0.00709x elapsed=0:00:23.51    \nframe=   13 fps=0.5 q=27.6 size=       0KiB time=00:00:00.18 bitrate=   1.9kbits/s speed=0.00762x elapsed=0:00:24.05    \nframe=   13 fps=0.5 q=27.6 size=       0KiB time=00:00:00.18 bitrate=   1.9kbits/s speed=0.00746x elapsed=0:00:24.58    \nframe=   13 fps=0.5 q=27.6 size=       0KiB time=00:00:00.18 bitrate=   1.9kbits/s speed=0.00728x elapsed=0:00:25.16    \nframe=   14 fps=0.5 q=27.8 size=       0KiB time=00:00:00.20 bitrate=   1.8kbits/s speed=0.00777x elapsed=0:00:25.74    \nframe=   14 fps=0.5 q=27.8 size=       0KiB time=00:00:00.20 bitrate=   1.8kbits/s speed=0.00761x elapsed=0:00:26.28    \nframe=   14 fps=0.5 q=27.8 size=       0KiB time=00:00:00.20 bitrate=   1.8kbits/s speed=0.00745x elapsed=0:00:26.84    \nframe=   14 fps=0.5 q=27.8 size=       0KiB time=00:00:00.20 bitrate=   1.8kbits/s speed=0.00731x elapsed=0:00:27.37    \nframe=   14 fps=0.5 q=27.8 size=       0KiB time=00:00:00.20 bitrate=   1.8kbits/s speed=0.00717x elapsed=0:00:27.90    \nframe=   14 fps=0.5 q=27.8 size=       0KiB time=00:00:00.20 bitrate=   1.8kbits/s speed=0.00703x elapsed=0:00:28.44    \nframe=   14 fps=0.5 q=27.8 size=       0KiB time=00:00:00.20 bitrate=   1.8kbits/s speed=0.0069x elapsed=0:00:28.97    \nframe=   14 fps=0.5 q=27.8 size=       0KiB time=00:00:00.20 bitrate=   1.8kbits/s speed=0.00678x elapsed=0:00:29.50    \nframe=   14 fps=0.5 q=27.8 size=       0KiB time=00:00:00.20 bitrate=   1.8kbits/s speed=0.00666x elapsed=0:00:30.04    \nframe=   14 fps=0.5 q=27.8 size=       0KiB time=00:00:00.20 bitrate=   1.8kbits/s speed=0.00653x elapsed=0:00:30.63    \nframe=   14 fps=0.4 q=27.8 size=       0KiB time=00:00:00.20 bitrate=   1.8kbits/s speed=0.00642x elapsed=0:00:31.16    \nframe=   15 fps=0.5 q=28.4 size=       0KiB time=00:00:00.21 bitrate=   1.6kbits/s speed=0.00684x elapsed=0:00:31.68    \nframe=   15 fps=0.5 q=28.4 size=       0KiB time=00:00:00.21 bitrate=   1.6kbits/s speed=0.00672x elapsed=0:00:32.21    \nframe=   15 fps=0.5 q=28.4 size=       0KiB time=00:00:00.21 bitrate=   1.6kbits/s speed=0.00662x elapsed=0:00:32.74    \nframe=   15 fps=0.5 q=28.4 size=       0KiB time=00:00:00.21 bitrate=   1.6kbits/s speed=0.00651x elapsed=0:00:33.29    \nframe=   15 fps=0.4 q=28.4 size=       0KiB time=00:00:00.21 bitrate=   1.6kbits/s speed=0.00639x elapsed=0:00:33.90    \nframe=   15 fps=0.4 q=28.4 size=       0KiB time=00:00:00.21 bitrate=   1.6kbits/s speed=0.00629x elapsed=0:00:34.45    \nframe=   15 fps=0.4 q=28.4 size=       0KiB time=00:00:00.21 bitrate=   1.6kbits/s speed=0.00619x elapsed=0:00:35.00    \nframe=   15 fps=0.4 q=28.4 size=       0KiB time=00:00:00.21 bitrate=   1.6kbits/s speed=0.00609x elapsed=0:00:35.57    \nframe=   15 fps=0.4 q=28.4 size=       0KiB time=00:00:00.21 bitrate=   1.6kbits/s speed=0.006x elapsed=0:00:36.12    \nframe=   15 fps=0.4 q=28.4 size=       0KiB time=00:00:00.21 bitrate=   1.6kbits/s speed=0.00591x elapsed=0:00:36.65    \nframe=   15 fps=0.4 q=28.4 size=       0KiB time=00:00:00.21 bitrate=   1.6kbits/s speed=0.00583x elapsed=0:00:37.18    \nframe=   16 fps=0.4 q=27.3 size=       0KiB time=00:00:00.23 bitrate=   1.5kbits/s speed=0.00619x elapsed=0:00:37.71    \nframe=   16 fps=0.4 q=27.3 size=       0KiB time=00:00:00.23 bitrate=   1.5kbits/s speed=0.00609x elapsed=0:00:38.28    \nframe=   16 fps=0.4 q=27.3 size=       0KiB time=00:00:00.23 bitrate=   1.5kbits/s speed=0.00601x elapsed=0:00:38.84    \nframe=   16 fps=0.4 q=27.3 size=       0KiB time=00:00:00.23 bitrate=   1.5kbits/s speed=0.00593x elapsed=0:00:39.37    \nframe=   16 fps=0.4 q=27.3 size=       0KiB time=00:00:00.23 bitrate=   1.5kbits/s speed=0.00584x elapsed=0:00:39.94    \nframe=   17 fps=0.4 q=22.5 size=       0KiB time=00:00:00.25 bitrate=   1.4kbits/s speed=0.00618x elapsed=0:00:40.47    \nframe=   17 fps=0.4 q=22.5 size=       0KiB time=00:00:00.25 bitrate=   1.4kbits/s speed=0.0061x elapsed=0:00:40.99    \nframe=   17 fps=0.4 q=22.5 size=       0KiB time=00:00:00.25 bitrate=   1.4kbits/s speed=0.00602x elapsed=0:00:41.55    \nframe=   17 fps=0.4 q=22.5 size=       0KiB time=00:00:00.25 bitrate=   1.4kbits/s speed=0.00594x elapsed=0:00:42.09    \nframe=   17 fps=0.4 q=22.5 size=       0KiB time=00:00:00.25 bitrate=   1.4kbits/s speed=0.00586x elapsed=0:00:42.62    \nframe=   17 fps=0.4 q=22.5 size=       0KiB time=00:00:00.25 bitrate=   1.4kbits/s speed=0.00579x elapsed=0:00:43.21    \nframe=   18 fps=0.4 q=28.3 size=       0KiB time=00:00:00.26 bitrate=   1.3kbits/s speed=0.0061x elapsed=0:00:43.75    \nframe=   18 fps=0.4 q=28.3 size=       0KiB time=00:00:00.26 bitrate=   1.3kbits/s speed=0.00602x elapsed=0:00:44.27    \nframe=   18 fps=0.4 q=28.3 size=       0KiB time=00:00:00.26 bitrate=   1.3kbits/s speed=0.00595x elapsed=0:00:44.82    \nframe=   18 fps=0.4 q=28.3 size=       0KiB time=00:00:00.26 bitrate=   1.3kbits/s speed=0.00588x elapsed=0:00:45.37    \nframe=   19 fps=0.4 q=28.0 size=       0KiB time=00:00:00.28 bitrate=   1.2kbits/s speed=0.00616x elapsed=0:00:45.97    \nframe=   19 fps=0.4 q=28.0 size=       0KiB time=00:00:00.28 bitrate=   1.2kbits/s speed=0.00609x elapsed=0:00:46.55    \nframe=   19 fps=0.4 q=28.0 size=       0KiB time=00:00:00.28 bitrate=   1.2kbits/s speed=0.00601x elapsed=0:00:47.17    \nframe=   19 fps=0.4 q=28.0 size=       0KiB time=00:00:00.28 bitrate=   1.2kbits/s speed=0.00594x elapsed=0:00:47.72    \nframe=   19 fps=0.4 q=28.0 size=       0KiB time=00:00:00.28 bitrate=   1.2kbits/s speed=0.00587x elapsed=0:00:48.30    \nframe=   19 fps=0.4 q=28.0 size=       0KiB time=00:00:00.28 bitrate=   1.2kbits/s speed=0.0058x elapsed=0:00:48.84    \nframe=   19 fps=0.4 q=28.0 size=       0KiB time=00:00:00.28 bitrate=   1.2kbits/s speed=0.00574x elapsed=0:00:49.37    \nframe=   19 fps=0.4 q=28.0 size=       0KiB time=00:00:00.28 bitrate=   1.2kbits/s speed=0.00568x elapsed=0:00:49.92    \nframe=   19 fps=0.4 q=28.0 size=       0KiB time=00:00:00.28 bitrate=   1.2kbits/s speed=0.00561x elapsed=0:00:50.50    \nframe=   19 fps=0.4 q=28.0 size=       0KiB time=00:00:00.28 bitrate=   1.2kbits/s speed=0.00555x elapsed=0:00:51.08    \nframe=   19 fps=0.4 q=28.0 size=       0KiB time=00:00:00.28 bitrate=   1.2kbits/s speed=0.00548x elapsed=0:00:51.69    \nframe=   19 fps=0.4 q=28.0 size=       0KiB time=00:00:00.28 bitrate=   1.2kbits/s speed=0.00542x elapsed=0:00:52.30    \nframe=   20 fps=0.4 q=27.3 size=       0KiB time=00:00:00.30 bitrate=   1.2kbits/s speed=0.00566x elapsed=0:00:52.95    \nframe=   20 fps=0.4 q=27.3 size=       0KiB time=00:00:00.30 bitrate=   1.2kbits/s speed=0.00559x elapsed=0:00:53.62    \nframe=   20 fps=0.4 q=27.3 size=       0KiB time=00:00:00.30 bitrate=   1.2kbits/s speed=0.00553x elapsed=0:00:54.22    \nframe=   21 fps=0.4 q=27.0 size=       0KiB time=00:00:00.31 bitrate=   1.1kbits/s speed=0.00578x elapsed=0:00:54.80    \nframe=   21 fps=0.4 q=27.0 size=       0KiB time=00:00:00.31 bitrate=   1.1kbits/s speed=0.00572x elapsed=0:00:55.33    \nframe=   21 fps=0.4 q=27.0 size=       0KiB time=00:00:00.31 bitrate=   1.1kbits/s speed=0.00567x elapsed=0:00:55.88    \nframe=   21 fps=0.4 q=27.0 size=       0KiB time=00:00:00.31 bitrate=   1.1kbits/s speed=0.00561x elapsed=0:00:56.40    \nframe=   21 fps=0.4 q=27.0 size=       0KiB time=00:00:00.31 bitrate=   1.1kbits/s speed=0.00556x elapsed=0:00:56.97    \nframe=   21 fps=0.4 q=27.0 size=       0KiB time=00:00:00.31 bitrate=   1.1kbits/s speed=0.00551x elapsed=0:00:57.51    \nframe=   21 fps=0.4 q=27.0 size=       0KiB time=00:00:00.31 bitrate=   1.1kbits/s speed=0.00545x elapsed=0:00:58.05    \nframe=   21 fps=0.4 q=27.0 size=       0KiB time=00:00:00.31 bitrate=   1.1kbits/s speed=0.0054x elapsed=0:00:58.59    \nframe=   22 fps=0.4 q=21.8 size=       0KiB time=00:00:00.33 bitrate=   1.1kbits/s speed=0.00564x elapsed=0:00:59.11    \nframe=   22 fps=0.4 q=21.8 size=       0KiB time=00:00:00.33 bitrate=   1.1kbits/s speed=0.00559x elapsed=0:00:59.63    \nframe=   22 fps=0.4 q=21.8 size=       0KiB time=00:00:00.33 bitrate=   1.1kbits/s speed=0.00554x elapsed=0:01:00.18    \nframe=   23 fps=0.4 q=27.5 size=       0KiB time=00:00:00.35 bitrate=   1.0kbits/s speed=0.00576x elapsed=0:01:00.72    \nframe=   23 fps=0.4 q=27.5 size=       0KiB time=00:00:00.35 bitrate=   1.0kbits/s speed=0.00572x elapsed=0:01:01.23    \nframe=   23 fps=0.4 q=27.5 size=       0KiB time=00:00:00.35 bitrate=   1.0kbits/s speed=0.00567x elapsed=0:01:01.76    \nframe=   23 fps=0.4 q=27.5 size=       0KiB time=00:00:00.35 bitrate=   1.0kbits/s speed=0.00562x elapsed=0:01:02.32    \nframe=   23 fps=0.4 q=27.5 size=       0KiB time=00:00:00.35 bitrate=   1.0kbits/s speed=0.00557x elapsed=0:01:02.86    \nframe=   24 fps=0.4 q=27.7 size=       0KiB time=00:00:00.36 bitrate=   1.0kbits/s speed=0.00578x elapsed=0:01:03.40    \nframe=   24 fps=0.4 q=27.7 size=       0KiB time=00:00:00.36 bitrate=   1.0kbits/s speed=0.00574x elapsed=0:01:03.92    \nframe=   24 fps=0.4 q=27.7 size=       0KiB time=00:00:00.36 bitrate=   1.0kbits/s speed=0.00569x elapsed=0:01:04.48    \nframe=   25 fps=0.4 q=26.9 size=       0KiB time=00:00:00.38 bitrate=   0.9kbits/s speed=0.00589x elapsed=0:01:05.06    \nframe=   25 fps=0.4 q=26.9 size=       0KiB time=00:00:00.38 bitrate=   0.9kbits/s speed=0.00584x elapsed=0:01:05.60    \nframe=   25 fps=0.4 q=26.9 size=       0KiB time=00:00:00.38 bitrate=   0.9kbits/s speed=0.0058x elapsed=0:01:06.12    \nframe=   25 fps=0.4 q=26.9 size=       0KiB time=00:00:00.38 bitrate=   0.9kbits/s speed=0.00575x elapsed=0:01:06.67    \nframe=   25 fps=0.4 q=26.9 size=       0KiB time=00:00:00.38 bitrate=   0.9kbits/s speed=0.0057x elapsed=0:01:07.20    \nframe=   26 fps=0.4 q=26.8 size=       0KiB time=00:00:00.40 bitrate=   0.9kbits/s speed=0.00591x elapsed=0:01:07.72    \nframe=   26 fps=0.4 q=26.8 size=       0KiB time=00:00:00.40 bitrate=   0.9kbits/s speed=0.00586x elapsed=0:01:08.24    \nframe=   26 fps=0.4 q=26.8 size=       0KiB time=00:00:00.40 bitrate=   0.9kbits/s speed=0.00582x elapsed=0:01:08.76    \nframe=   27 fps=0.4 q=21.7 size=       0KiB time=00:00:00.41 bitrate=   0.8kbits/s speed=0.00601x elapsed=0:01:09.30    \nframe=   27 fps=0.4 q=21.7 size=       0KiB time=00:00:00.41 bitrate=   0.8kbits/s speed=0.00597x elapsed=0:01:09.84    \nframe=   27 fps=0.4 q=21.7 size=       0KiB time=00:00:00.41 bitrate=   0.8kbits/s speed=0.00592x elapsed=0:01:10.41    \nframe=   27 fps=0.4 q=21.7 size=       0KiB time=00:00:00.41 bitrate=   0.8kbits/s speed=0.00587x elapsed=0:01:10.94    \nframe=   28 fps=0.4 q=26.4 size=       0KiB time=00:00:00.43 bitrate=   0.8kbits/s speed=0.00606x elapsed=0:01:11.48    \nframe=   28 fps=0.4 q=26.4 size=       0KiB time=00:00:00.43 bitrate=   0.8kbits/s speed=0.00602x elapsed=0:01:12.02    \nframe=   29 fps=0.4 q=27.0 size=       0KiB time=00:00:00.45 bitrate=   0.8kbits/s speed=0.0062x elapsed=0:01:12.57    \nframe=   29 fps=0.4 q=27.0 size=       0KiB time=00:00:00.45 bitrate=   0.8kbits/s speed=0.00615x elapsed=0:01:13.14    \nframe=   29 fps=0.4 q=27.0 size=       0KiB time=00:00:00.45 bitrate=   0.8kbits/s speed=0.00611x elapsed=0:01:13.70    \nframe=   29 fps=0.4 q=27.0 size=       0KiB time=00:00:00.45 bitrate=   0.8kbits/s speed=0.00606x elapsed=0:01:14.26    \nframe=   29 fps=0.4 q=27.0 size=       0KiB time=00:00:00.45 bitrate=   0.8kbits/s speed=0.00602x elapsed=0:01:14.79    \nframe=   30 fps=0.4 q=27.2 size=       0KiB time=00:00:00.46 bitrate=   0.8kbits/s speed=0.00619x elapsed=0:01:15.36    \nframe=   30 fps=0.4 q=27.2 size=       0KiB time=00:00:00.46 bitrate=   0.8kbits/s speed=0.00615x elapsed=0:01:15.89    \nframe=   30 fps=0.4 q=27.2 size=       0KiB time=00:00:00.46 bitrate=   0.8kbits/s speed=0.0061x elapsed=0:01:16.44    \nframe=   31 fps=0.4 q=26.6 size=       0KiB time=00:00:00.48 bitrate=   0.7kbits/s speed=0.00628x elapsed=0:01:16.96    \nframe=   31 fps=0.4 q=26.6 size=       0KiB time=00:00:00.48 bitrate=   0.7kbits/s speed=0.00624x elapsed=0:01:17.47    \nframe=   32 fps=0.4 q=21.4 size=       0KiB time=00:00:00.50 bitrate=   0.7kbits/s speed=0.00641x elapsed=0:01:18.02    \nframe=   32 fps=0.4 q=21.4 size=       0KiB time=00:00:00.50 bitrate=   0.7kbits/s speed=0.00637x elapsed=0:01:18.55    \nframe=   32 fps=0.4 q=21.4 size=       0KiB time=00:00:00.50 bitrate=   0.7kbits/s speed=0.00632x elapsed=0:01:19.08    \nframe=   32 fps=0.4 q=21.4 size=       0KiB time=00:00:00.50 bitrate=   0.7kbits/s speed=0.00628x elapsed=0:01:19.62    \nframe=   33 fps=0.4 q=24.4 size=       0KiB time=00:00:00.51 bitrate=   0.7kbits/s speed=0.00645x elapsed=0:01:20.14    \nframe=   33 fps=0.4 q=24.4 size=       0KiB time=00:00:00.51 bitrate=   0.7kbits/s speed=0.00641x elapsed=0:01:20.66    \nframe=   33 fps=0.4 q=24.4 size=       0KiB time=00:00:00.51 bitrate=   0.7kbits/s speed=0.00636x elapsed=0:01:21.17    \nframe=   33 fps=0.4 q=24.4 size=       0KiB time=00:00:00.51 bitrate=   0.7kbits/s speed=0.00632x elapsed=0:01:21.72    \nframe=   33 fps=0.4 q=24.4 size=       0KiB time=00:00:00.51 bitrate=   0.7kbits/s speed=0.00628x elapsed=0:01:22.28    \nframe=   34 fps=0.4 q=27.2 size=       0KiB time=00:00:00.53 bitrate=   0.7kbits/s speed=0.00644x elapsed=0:01:22.81    \nframe=   34 fps=0.4 q=27.2 size=       0KiB time=00:00:00.53 bitrate=   0.7kbits/s speed=0.0064x elapsed=0:01:23.35    \nframe=   34 fps=0.4 q=27.2 size=       0KiB time=00:00:00.53 bitrate=   0.7kbits/s speed=0.00636x elapsed=0:01:23.86    \nframe=   34 fps=0.4 q=27.2 size=       0KiB time=00:00:00.53 bitrate=   0.7kbits/s speed=0.00632x elapsed=0:01:24.38    \nframe=   35 fps=0.4 q=26.0 size=       0KiB time=00:00:00.55 bitrate=   0.6kbits/s speed=0.00648x elapsed=0:01:24.92    \nframe=   35 fps=0.4 q=26.0 size=       0KiB time=00:00:00.55 bitrate=   0.6kbits/s speed=0.00644x elapsed=0:01:25.45    \nframe=   36 fps=0.4 q=21.4 size=       0KiB time=00:00:00.56 bitrate=   0.6kbits/s speed=0.00659x elapsed=0:01:26.02    \nframe=   36 fps=0.4 q=21.4 size=       0KiB time=00:00:00.56 bitrate=   0.6kbits/s speed=0.00655x elapsed=0:01:26.54    \nframe=   37 fps=0.4 q=23.9 size=       0KiB time=00:00:00.58 bitrate=   0.6kbits/s speed=0.0067x elapsed=0:01:27.07    \nframe=   38 fps=0.4 q=27.0 size=       0KiB time=00:00:00.60 bitrate=   0.6kbits/s speed=0.00685x elapsed=0:01:27.62    \nframe=   38 fps=0.4 q=27.0 size=       0KiB time=00:00:00.60 bitrate=   0.6kbits/s speed=0.0068x elapsed=0:01:28.17    \nframe=   38 fps=0.4 q=27.0 size=       0KiB time=00:00:00.60 bitrate=   0.6kbits/s speed=0.00676x elapsed=0:01:28.73    \nframe=   38 fps=0.4 q=27.0 size=       0KiB time=00:00:00.60 bitrate=   0.6kbits/s speed=0.00672x elapsed=0:01:29.27    \nframe=   39 fps=0.4 q=26.2 size=       0KiB time=00:00:00.61 bitrate=   0.6kbits/s speed=0.00687x elapsed=0:01:29.80    \nframe=   39 fps=0.4 q=26.2 size=       0KiB time=00:00:00.61 bitrate=   0.6kbits/s speed=0.00683x elapsed=0:01:30.35    \nframe=   39 fps=0.4 q=26.2 size=       0KiB time=00:00:00.61 bitrate=   0.6kbits/s speed=0.00678x elapsed=0:01:30.89    \nframe=   39 fps=0.4 q=26.2 size=       0KiB time=00:00:00.61 bitrate=   0.6kbits/s speed=0.00674x elapsed=0:01:31.43    \nframe=   39 fps=0.4 q=26.2 size=       0KiB time=00:00:00.61 bitrate=   0.6kbits/s speed=0.0067x elapsed=0:01:31.97    \nframe=   40 fps=0.4 q=26.3 size=       0KiB time=00:00:00.63 bitrate=   0.6kbits/s speed=0.00685x elapsed=0:01:32.49    \nframe=   41 fps=0.4 q=21.1 size=       0KiB time=00:00:00.65 bitrate=   0.5kbits/s speed=0.00699x elapsed=0:01:33.00    \nframe=   41 fps=0.4 q=21.1 size=       0KiB time=00:00:00.65 bitrate=   0.5kbits/s speed=0.00695x elapsed=0:01:33.54    \nframe=   42 fps=0.4 q=24.6 size=     256KiB time=00:00:00.66 bitrate=3146.3kbits/s speed=0.00709x elapsed=0:01:34.08    \nframe=   42 fps=0.4 q=24.6 size=     256KiB time=00:00:00.66 bitrate=3146.3kbits/s speed=0.00705x elapsed=0:01:34.59    \nframe=   42 fps=0.4 q=24.6 size=     256KiB time=00:00:00.66 bitrate=3146.3kbits/s speed=0.00701x elapsed=0:01:35.13    \nframe=   43 fps=0.4 q=26.6 size=     256KiB time=00:00:00.68 bitrate=3069.5kbits/s speed=0.00714x elapsed=0:01:35.65    \nframe=   43 fps=0.4 q=26.6 size=     256KiB time=00:00:00.68 bitrate=3069.5kbits/s speed=0.0071x elapsed=0:01:36.17    \nframe=   43 fps=0.4 q=26.6 size=     256KiB time=00:00:00.68 bitrate=3069.5kbits/s speed=0.00707x elapsed=0:01:36.70    \nframe=   44 fps=0.5 q=26.6 size=     256KiB time=00:00:00.70 bitrate=2996.4kbits/s speed=0.0072x elapsed=0:01:37.24    \nframe=   44 fps=0.4 q=26.6 size=     256KiB time=00:00:00.70 bitrate=2996.4kbits/s speed=0.00716x elapsed=0:01:37.78    \nframe=   44 fps=0.4 q=26.6 size=     256KiB time=00:00:00.70 bitrate=2996.4kbits/s speed=0.00712x elapsed=0:01:38.29    \nframe=   45 fps=0.5 q=21.2 size=     256KiB time=00:00:00.71 bitrate=2926.7kbits/s speed=0.00725x elapsed=0:01:38.82    \nframe=   45 fps=0.5 q=21.2 size=     256KiB time=00:00:00.71 bitrate=2926.7kbits/s speed=0.00721x elapsed=0:01:39.33    \nframe=   45 fps=0.5 q=21.2 size=     256KiB time=00:00:00.71 bitrate=2926.7kbits/s speed=0.00718x elapsed=0:01:39.85    \nframe=   45 fps=0.4 q=21.2 size=     256KiB time=00:00:00.71 bitrate=2926.7kbits/s speed=0.00714x elapsed=0:01:40.38    \nframe=   46 fps=0.5 q=21.0 size=     256KiB time=00:00:00.73 bitrate=2860.2kbits/s speed=0.00726x elapsed=0:01:40.94    \nframe=   46 fps=0.5 q=21.0 size=     256KiB time=00:00:00.73 bitrate=2860.2kbits/s speed=0.00723x elapsed=0:01:41.48    \nframe=   46 fps=0.5 q=21.0 size=     256KiB time=00:00:00.73 bitrate=2860.2kbits/s speed=0.00719x elapsed=0:01:42.00    \nframe=   46 fps=0.4 q=21.0 size=     256KiB time=00:00:00.73 bitrate=2860.2kbits/s speed=0.00715x elapsed=0:01:42.55    \nframe=   46 fps=0.4 q=21.0 size=     256KiB time=00:00:00.73 bitrate=2860.2kbits/s speed=0.00711x elapsed=0:01:43.09    \nframe=   46 fps=0.4 q=21.0 size=     256KiB time=00:00:00.73 bitrate=2860.2kbits/s speed=0.00708x elapsed=0:01:43.63    \nframe=   47 fps=0.5 q=27.3 size=     256KiB time=00:00:00.75 bitrate=2796.7kbits/s speed=0.0072x elapsed=0:01:44.15    \nframe=   47 fps=0.4 q=27.3 size=     256KiB time=00:00:00.75 bitrate=2796.7kbits/s speed=0.00716x elapsed=0:01:44.70    \nframe=   47 fps=0.4 q=27.3 size=     256KiB time=00:00:00.75 bitrate=2796.7kbits/s speed=0.00713x elapsed=0:01:45.23    \nframe=   48 fps=0.5 q=21.7 size=     256KiB time=00:00:00.76 bitrate=2735.9kbits/s speed=0.00725x elapsed=0:01:45.77    \nframe=   48 fps=0.5 q=21.7 size=     256KiB time=00:00:00.76 bitrate=2735.9kbits/s speed=0.00721x elapsed=0:01:46.33    \nframe=   48 fps=0.4 q=21.7 size=     256KiB time=00:00:00.76 bitrate=2735.9kbits/s speed=0.00717x elapsed=0:01:46.86    \nframe=   48 fps=0.4 q=21.7 size=     256KiB time=00:00:00.76 bitrate=2735.9kbits/s speed=0.00714x elapsed=0:01:47.40    \nframe=   49 fps=0.5 q=25.4 size=     256KiB time=00:00:00.78 bitrate=2677.7kbits/s speed=0.00726x elapsed=0:01:47.93    \nframe=   49 fps=0.5 q=25.4 size=     256KiB time=00:00:00.78 bitrate=2677.7kbits/s speed=0.00722x elapsed=0:01:48.51    \nframe=   49 fps=0.4 q=25.4 size=     256KiB time=00:00:00.78 bitrate=2677.7kbits/s speed=0.00718x elapsed=0:01:49.14    \nframe=   49 fps=0.4 q=25.4 size=     256KiB time=00:00:00.78 bitrate=2677.7kbits/s speed=0.00714x elapsed=0:01:49.68    \nframe=   49 fps=0.4 q=25.4 size=     256KiB time=00:00:00.78 bitrate=2677.7kbits/s speed=0.0071x elapsed=0:01:50.31    \nframe=   50 fps=0.5 q=27.5 size=     256KiB time=00:00:00.80 bitrate=2621.9kbits/s speed=0.00722x elapsed=0:01:50.85    \nframe=   50 fps=0.4 q=27.5 size=     256KiB time=00:00:00.80 bitrate=2621.9kbits/s speed=0.00718x elapsed=0:01:51.38    \nframe=   50 fps=0.4 q=27.5 size=     256KiB time=00:00:00.80 bitrate=2621.9kbits/s speed=0.00715x elapsed=0:01:51.92    \nframe=   50 fps=0.4 q=27.5 size=     256KiB time=00:00:00.80 bitrate=2621.9kbits/s speed=0.00711x elapsed=0:01:52.44    \nframe=   50 fps=0.4 q=27.5 size=     256KiB time=00:00:00.80 bitrate=2621.9kbits/s speed=0.00708x elapsed=0:01:53.03    \nframe=   51 fps=0.4 q=27.6 size=     256KiB time=00:00:00.81 bitrate=2568.4kbits/s speed=0.00719x elapsed=0:01:53.58    \nframe=   51 fps=0.4 q=27.6 size=     256KiB time=00:00:00.81 bitrate=2568.4kbits/s speed=0.00716x elapsed=0:01:54.12    \nframe=   51 fps=0.4 q=27.6 size=     256KiB time=00:00:00.81 bitrate=2568.4kbits/s speed=0.00712x elapsed=0:01:54.66    \nframe=   51 fps=0.4 q=27.6 size=     256KiB time=00:00:00.81 bitrate=2568.4kbits/s speed=0.00709x elapsed=0:01:55.19    \nframe=   52 fps=0.4 q=27.2 size=     256KiB time=00:00:00.83 bitrate=2517.0kbits/s speed=0.0072x elapsed=0:01:55.70    \nframe=   53 fps=0.5 q=21.9 size=     256KiB time=00:00:00.85 bitrate=2467.7kbits/s speed=0.00731x elapsed=0:01:56.23    \nframe=   53 fps=0.5 q=21.9 size=     256KiB time=00:00:00.85 bitrate=2467.7kbits/s speed=0.00728x elapsed=0:01:56.77    \nframe=   54 fps=0.5 q=25.1 size=     256KiB time=00:00:00.86 bitrate=2420.2kbits/s speed=0.00739x elapsed=0:01:57.30    \nframe=   54 fps=0.5 q=25.1 size=     256KiB time=00:00:00.86 bitrate=2420.2kbits/s speed=0.00736x elapsed=0:01:57.81    \nframe=   54 fps=0.5 q=25.1 size=     256KiB time=00:00:00.86 bitrate=2420.2kbits/s speed=0.00732x elapsed=0:01:58.33    \nframe=   55 fps=0.5 q=28.2 size=     256KiB time=00:00:00.88 bitrate=2374.5kbits/s speed=0.00743x elapsed=0:01:58.85    \nframe=   55 fps=0.5 q=28.2 size=     256KiB time=00:00:00.88 bitrate=2374.5kbits/s speed=0.0074x elapsed=0:01:59.37    \nframe=   55 fps=0.5 q=28.2 size=     256KiB time=00:00:00.88 bitrate=2374.5kbits/s speed=0.00737x elapsed=0:01:59.89    \nframe=   56 fps=0.5 q=27.6 size=     256KiB time=00:00:00.90 bitrate=2330.6kbits/s speed=0.00747x elapsed=0:02:00.44    \nframe=   57 fps=0.5 q=21.8 size=     256KiB time=00:00:00.91 bitrate=2288.2kbits/s speed=0.00758x elapsed=0:02:00.96    \nframe=   57 fps=0.5 q=21.8 size=     256KiB time=00:00:00.91 bitrate=2288.2kbits/s speed=0.00754x elapsed=0:02:01.49    \nframe=   58 fps=0.5 q=25.6 size=     256KiB time=00:00:00.93 bitrate=2247.3kbits/s speed=0.00765x elapsed=0:02:02.00    \nframe=   58 fps=0.5 q=25.6 size=     256KiB time=00:00:00.93 bitrate=2247.3kbits/s speed=0.00762x elapsed=0:02:02.52    \nframe=   58 fps=0.5 q=25.6 size=     256KiB time=00:00:00.93 bitrate=2247.3kbits/s speed=0.00758x elapsed=0:02:03.06    \nframe=   58 fps=0.5 q=25.6 size=     256KiB time=00:00:00.93 bitrate=2247.3kbits/s speed=0.00755x elapsed=0:02:03.57    \nframe=   58 fps=0.5 q=25.6 size=     256KiB time=00:00:00.93 bitrate=2247.3kbits/s speed=0.00752x elapsed=0:02:04.10    \nframe=   59 fps=0.5 q=28.1 size=     256KiB time=00:00:00.95 bitrate=2207.9kbits/s speed=0.00762x elapsed=0:02:04.62    \nframe=   59 fps=0.5 q=28.1 size=     256KiB time=00:00:00.95 bitrate=2207.9kbits/s speed=0.00759x elapsed=0:02:05.16    \nframe=   59 fps=0.5 q=28.1 size=     256KiB time=00:00:00.95 bitrate=2207.9kbits/s speed=0.00756x elapsed=0:02:05.70    \nframe=   60 fps=0.5 q=28.1 size=     256KiB time=00:00:00.96 bitrate=2169.8kbits/s speed=0.00766x elapsed=0:02:06.22    \nframe=   61 fps=0.5 q=21.6 size=     256KiB time=00:00:00.98 bitrate=2133.1kbits/s speed=0.00776x elapsed=0:02:06.75    \nframe=   61 fps=0.5 q=21.6 size=     256KiB time=00:00:00.98 bitrate=2133.1kbits/s speed=0.00772x elapsed=0:02:07.29    \nframe=   62 fps=0.5 q=25.5 size=     256KiB time=00:00:01.00 bitrate=2097.5kbits/s speed=0.00782x elapsed=0:02:07.81    \nframe=   62 fps=0.5 q=25.5 size=     256KiB time=00:00:01.00 bitrate=2097.5kbits/s speed=0.00779x elapsed=0:02:08.34    \nframe=   62 fps=0.5 q=25.5 size=     256KiB time=00:00:01.00 bitrate=2097.5kbits/s speed=0.00776x elapsed=0:02:08.85    \nframe=   63 fps=0.5 q=28.0 size=     256KiB time=00:00:01.01 bitrate=2063.1kbits/s speed=0.00786x elapsed=0:02:09.37    \nframe=   63 fps=0.5 q=28.0 size=     256KiB time=00:00:01.01 bitrate=2063.1kbits/s speed=0.00783x elapsed=0:02:09.89    \nframe=   63 fps=0.5 q=28.0 size=     256KiB time=00:00:01.01 bitrate=2063.1kbits/s speed=0.0078x elapsed=0:02:10.41    \nframe=   64 fps=0.5 q=27.9 size=     256KiB time=00:00:01.03 bitrate=2029.8kbits/s speed=0.00789x elapsed=0:02:10.96    \nframe=   65 fps=0.5 q=22.1 size=     256KiB time=00:00:01.05 bitrate=1997.6kbits/s speed=0.00799x elapsed=0:02:11.46    \nframe=   66 fps=0.5 q=25.4 size=     256KiB time=00:00:01.06 bitrate=1966.4kbits/s speed=0.00808x elapsed=0:02:12.00    \nframe=   66 fps=0.5 q=25.4 size=     256KiB time=00:00:01.06 bitrate=1966.4kbits/s speed=0.00805x elapsed=0:02:12.52    \nframe=   66 fps=0.5 q=25.4 size=     256KiB time=00:00:01.06 bitrate=1966.4kbits/s speed=0.00802x elapsed=0:02:13.07    \nframe=   67 fps=0.5 q=28.6 size=     256KiB time=00:00:01.08 bitrate=1936.2kbits/s speed=0.00811x elapsed=0:02:13.58    \nframe=   67 fps=0.5 q=28.6 size=     256KiB time=00:00:01.08 bitrate=1936.2kbits/s speed=0.00808x elapsed=0:02:14.10    \nframe=   68 fps=0.5 q=28.3 size=     256KiB time=00:00:01.10 bitrate=1906.8kbits/s speed=0.00817x elapsed=0:02:14.63    \nframe=   69 fps=0.5 q=21.7 size=     256KiB time=00:00:01.11 bitrate=1878.4kbits/s speed=0.00826x elapsed=0:02:15.14    \nframe=   69 fps=0.5 q=21.7 size=     256KiB time=00:00:01.11 bitrate=1878.4kbits/s speed=0.00823x elapsed=0:02:15.66    \nframe=   70 fps=0.5 q=26.7 size=     512KiB time=00:00:01.13 bitrate=3701.2kbits/s speed=0.00832x elapsed=0:02:16.18    \nframe=   70 fps=0.5 q=26.7 size=     512KiB time=00:00:01.13 bitrate=3701.2kbits/s speed=0.00829x elapsed=0:02:16.72    \nframe=   71 fps=0.5 q=27.7 size=     512KiB time=00:00:01.15 bitrate=3647.5kbits/s speed=0.00838x elapsed=0:02:17.25    \nframe=   71 fps=0.5 q=27.7 size=     512KiB time=00:00:01.15 bitrate=3647.5kbits/s speed=0.00835x elapsed=0:02:17.76    \nframe=   71 fps=0.5 q=27.7 size=     512KiB time=00:00:01.15 bitrate=3647.5kbits/s speed=0.00832x elapsed=0:02:18.28    \nframe=   71 fps=0.5 q=27.7 size=     512KiB time=00:00:01.15 bitrate=3647.5kbits/s speed=0.00828x elapsed=0:02:18.83    \nframe=   71 fps=0.5 q=27.7 size=     512KiB time=00:00:01.15 bitrate=3647.5kbits/s speed=0.00825x elapsed=0:02:19.38    \nframe=   71 fps=0.5 q=27.7 size=     512KiB time=00:00:01.15 bitrate=3647.5kbits/s speed=0.00822x elapsed=0:02:19.91    \nframe=   72 fps=0.5 q=27.6 size=     512KiB time=00:00:01.16 bitrate=3595.4kbits/s speed=0.00831x elapsed=0:02:20.43    \nframe=   73 fps=0.5 q=27.2 size=     512KiB time=00:00:01.18 bitrate=3544.8kbits/s speed=0.0084x elapsed=0:02:20.94    \nframe=   73 fps=0.5 q=27.2 size=     512KiB time=00:00:01.18 bitrate=3544.8kbits/s speed=0.00837x elapsed=0:02:21.45    \nframe=   74 fps=0.5 q=21.6 size=     512KiB time=00:00:01.20 bitrate=3495.5kbits/s speed=0.00845x elapsed=0:02:21.99    \nframe=   74 fps=0.5 q=21.6 size=     512KiB time=00:00:01.20 bitrate=3495.5kbits/s speed=0.00842x elapsed=0:02:22.50    \nframe=   76 fps=0.5 q=28.3 size=     512KiB time=00:00:01.23 bitrate=3401.1kbits/s speed=0.00862x elapsed=0:02:23.02    \nframe=   76 fps=0.5 q=28.3 size=     512KiB time=00:00:01.23 bitrate=3401.1kbits/s speed=0.00859x elapsed=0:02:23.53    \nframe=   76 fps=0.5 q=28.3 size=     512KiB time=00:00:01.23 bitrate=3401.1kbits/s speed=0.00856x elapsed=0:02:24.05    \nframe=   77 fps=0.5 q=27.9 size=     512KiB time=00:00:01.25 bitrate=3355.7kbits/s speed=0.00865x elapsed=0:02:24.59    \nframe=   77 fps=0.5 q=27.9 size=     512KiB time=00:00:01.25 bitrate=3355.7kbits/s speed=0.00861x elapsed=0:02:25.12    \nframe=   77 fps=0.5 q=27.9 size=     512KiB time=00:00:01.25 bitrate=3355.7kbits/s speed=0.00858x elapsed=0:02:25.67    \nframe=   77 fps=0.5 q=27.9 size=     512KiB time=00:00:01.25 bitrate=3355.7kbits/s speed=0.00855x elapsed=0:02:26.19    \nframe=   78 fps=0.5 q=28.1 size=     512KiB time=00:00:01.26 bitrate=3311.6kbits/s speed=0.00863x elapsed=0:02:26.73    \nframe=   79 fps=0.5 q=21.9 size=     512KiB time=00:00:01.28 bitrate=3268.6kbits/s speed=0.00871x elapsed=0:02:27.25    \nframe=   79 fps=0.5 q=21.9 size=     512KiB time=00:00:01.28 bitrate=3268.6kbits/s speed=0.00868x elapsed=0:02:27.79    \nframe=   79 fps=0.5 q=21.9 size=     512KiB time=00:00:01.28 bitrate=3268.6kbits/s speed=0.00865x elapsed=0:02:28.36    \nframe=   80 fps=0.5 q=24.6 size=     512KiB time=00:00:01.30 bitrate=3226.7kbits/s speed=0.00873x elapsed=0:02:28.94    \nframe=   80 fps=0.5 q=24.6 size=     512KiB time=00:00:01.30 bitrate=3226.7kbits/s speed=0.0087x elapsed=0:02:29.50    \nframe=   80 fps=0.5 q=24.6 size=     512KiB time=00:00:01.30 bitrate=3226.7kbits/s speed=0.00867x elapsed=0:02:30.01    \nframe=   81 fps=0.5 q=28.5 size=     512KiB time=00:00:01.31 bitrate=3185.8kbits/s speed=0.00875x elapsed=0:02:30.55    \nframe=   81 fps=0.5 q=28.5 size=     512KiB time=00:00:01.31 bitrate=3185.8kbits/s speed=0.00871x elapsed=0:02:31.09    \nframe=   82 fps=0.5 q=28.2 size=     512KiB time=00:00:01.33 bitrate=3146.0kbits/s speed=0.00879x elapsed=0:02:31.65    \nframe=   82 fps=0.5 q=28.2 size=     512KiB time=00:00:01.33 bitrate=3146.0kbits/s speed=0.00876x elapsed=0:02:32.21    \nframe=   82 fps=0.5 q=28.2 size=     512KiB time=00:00:01.33 bitrate=3146.0kbits/s speed=0.00873x elapsed=0:02:32.80    \nframe=   83 fps=0.5 q=28.2 size=     512KiB time=00:00:01.35 bitrate=3107.2kbits/s speed=0.0088x elapsed=0:02:33.33    \nframe=   83 fps=0.5 q=28.2 size=     512KiB time=00:00:01.35 bitrate=3107.2kbits/s speed=0.00877x elapsed=0:02:33.88    \nframe=   83 fps=0.5 q=28.2 size=     512KiB time=00:00:01.35 bitrate=3107.2kbits/s speed=0.00874x elapsed=0:02:34.43    \nframe=   83 fps=0.5 q=28.2 size=     512KiB time=00:00:01.35 bitrate=3107.2kbits/s speed=0.00871x elapsed=0:02:34.98    \nframe=   84 fps=0.5 q=21.6 size=     512KiB time=00:00:01.36 bitrate=3069.3kbits/s speed=0.00879x elapsed=0:02:35.52    \nframe=   84 fps=0.5 q=21.6 size=     512KiB time=00:00:01.36 bitrate=3069.3kbits/s speed=0.00876x elapsed=0:02:36.05    \nframe=   84 fps=0.5 q=21.6 size=     512KiB time=00:00:01.36 bitrate=3069.3kbits/s speed=0.00873x elapsed=0:02:36.57    \nframe=   85 fps=0.5 q=25.5 size=     512KiB time=00:00:01.38 bitrate=3032.3kbits/s speed=0.00881x elapsed=0:02:37.10    \nframe=   85 fps=0.5 q=25.5 size=     512KiB time=00:00:01.38 bitrate=3032.3kbits/s speed=0.00877x elapsed=0:02:37.64    \nframe=   86 fps=0.5 q=28.5 size=     512KiB time=00:00:01.40 bitrate=2996.2kbits/s speed=0.00885x elapsed=0:02:38.16    \nframe=   86 fps=0.5 q=28.5 size=     512KiB time=00:00:01.40 bitrate=2996.2kbits/s speed=0.00882x elapsed=0:02:38.68    \nframe=   86 fps=0.5 q=28.5 size=     512KiB time=00:00:01.40 bitrate=2996.2kbits/s speed=0.00879x elapsed=0:02:39.23    \nframe=   86 fps=0.5 q=28.5 size=     512KiB time=00:00:01.40 bitrate=2996.2kbits/s speed=0.00876x elapsed=0:02:39.75    \nframe=   86 fps=0.5 q=28.5 size=     512KiB time=00:00:01.40 bitrate=2996.2kbits/s speed=0.00873x elapsed=0:02:40.30    \nframe=   86 fps=0.5 q=28.5 size=     512KiB time=00:00:01.40 bitrate=2996.2kbits/s speed=0.0087x elapsed=0:02:40.85    \nframe=   86 fps=0.5 q=28.5 size=     512KiB time=00:00:01.40 bitrate=2996.2kbits/s speed=0.00868x elapsed=0:02:41.37    \nframe=   86 fps=0.5 q=28.5 size=     512KiB time=00:00:01.40 bitrate=2996.2kbits/s speed=0.00865x elapsed=0:02:41.92    \nframe=   87 fps=0.5 q=28.6 size=     512KiB time=00:00:01.41 bitrate=2960.9kbits/s speed=0.00872x elapsed=0:02:42.47    \nframe=   87 fps=0.5 q=28.6 size=     512KiB time=00:00:01.41 bitrate=2960.9kbits/s speed=0.00869x elapsed=0:02:42.99    \nframe=   87 fps=0.5 q=28.6 size=     512KiB time=00:00:01.41 bitrate=2960.9kbits/s speed=0.00866x elapsed=0:02:43.56    \nframe=   87 fps=0.5 q=28.6 size=     512KiB time=00:00:01.41 bitrate=2960.9kbits/s speed=0.00863x elapsed=0:02:44.14    \nframe=   88 fps=0.5 q=28.5 size=     512KiB time=00:00:01.43 bitrate=2926.5kbits/s speed=0.0087x elapsed=0:02:44.69    \nframe=   88 fps=0.5 q=28.5 size=     512KiB time=00:00:01.43 bitrate=2926.5kbits/s speed=0.00867x elapsed=0:02:45.25    \nframe=   88 fps=0.5 q=28.5 size=     512KiB time=00:00:01.43 bitrate=2926.5kbits/s speed=0.00864x elapsed=0:02:45.86    \nframe=   88 fps=0.5 q=28.5 size=     512KiB time=00:00:01.43 bitrate=2926.5kbits/s speed=0.00861x elapsed=0:02:46.47    \nframe=   88 fps=0.5 q=28.5 size=     512KiB time=00:00:01.43 bitrate=2926.5kbits/s speed=0.00858x elapsed=0:02:47.06    \nframe=   89 fps=0.5 q=21.6 size=     512KiB time=00:00:01.45 bitrate=2892.9kbits/s speed=0.00865x elapsed=0:02:47.66    \nframe=   89 fps=0.5 q=21.6 size=     512KiB time=00:00:01.45 bitrate=2892.9kbits/s speed=0.00862x elapsed=0:02:48.25    \nframe=   89 fps=0.5 q=21.6 size=     512KiB time=00:00:01.45 bitrate=2892.9kbits/s speed=0.00859x elapsed=0:02:48.79    \nframe=   89 fps=0.5 q=21.6 size=     512KiB time=00:00:01.45 bitrate=2892.9kbits/s speed=0.00856x elapsed=0:02:49.31    \nframe=   90 fps=0.5 q=26.8 size=     512KiB time=00:00:01.46 bitrate=2860.0kbits/s speed=0.00864x elapsed=0:02:49.83    \nframe=   90 fps=0.5 q=26.8 size=     512KiB time=00:00:01.46 bitrate=2860.0kbits/s speed=0.00861x elapsed=0:02:50.37    \nframe=   90 fps=0.5 q=26.8 size=     512KiB time=00:00:01.46 bitrate=2860.0kbits/s speed=0.00858x elapsed=0:02:50.89    \nframe=   91 fps=0.5 q=28.0 size=     512KiB time=00:00:01.48 bitrate=2827.9kbits/s speed=0.00865x elapsed=0:02:51.42    \nframe=   91 fps=0.5 q=28.0 size=     512KiB time=00:00:01.48 bitrate=2827.9kbits/s speed=0.00863x elapsed=0:02:51.95    \nframe=   91 fps=0.5 q=28.0 size=     512KiB time=00:00:01.48 bitrate=2827.9kbits/s speed=0.0086x elapsed=0:02:52.48    \nframe=   92 fps=0.5 q=28.3 size=     512KiB time=00:00:01.50 bitrate=2796.4kbits/s speed=0.00867x elapsed=0:02:53.00    \nframe=   93 fps=0.5 q=27.4 size=     512KiB time=00:00:01.51 bitrate=2765.7kbits/s speed=0.00874x elapsed=0:02:53.52    \nframe=   93 fps=0.5 q=27.4 size=     512KiB time=00:00:01.51 bitrate=2765.7kbits/s speed=0.00871x elapsed=0:02:54.04    \nframe=   94 fps=0.5 q=21.0 size=     512KiB time=00:00:01.53 bitrate=2735.6kbits/s speed=0.00878x elapsed=0:02:54.55    \nframe=   94 fps=0.5 q=21.0 size=     512KiB time=00:00:01.53 bitrate=2735.6kbits/s speed=0.00876x elapsed=0:02:55.07    \nframe=   95 fps=0.5 q=26.3 size=     512KiB time=00:00:01.55 bitrate=2706.2kbits/s speed=0.00883x elapsed=0:02:55.61    \nframe=   96 fps=0.5 q=27.7 size=     512KiB time=00:00:01.56 bitrate=2677.4kbits/s speed=0.00889x elapsed=0:02:56.15    \nframe=   96 fps=0.5 q=27.7 size=     512KiB time=00:00:01.56 bitrate=2677.4kbits/s speed=0.00887x elapsed=0:02:56.69    \nframe=   96 fps=0.5 q=27.7 size=     512KiB time=00:00:01.56 bitrate=2677.4kbits/s speed=0.00884x elapsed=0:02:57.20    \nframe=   97 fps=0.5 q=27.4 size=     512KiB time=00:00:01.58 bitrate=2649.3kbits/s speed=0.00891x elapsed=0:02:57.72    \nframe=   97 fps=0.5 q=27.4 size=     512KiB time=00:00:01.58 bitrate=2649.3kbits/s speed=0.00888x elapsed=0:02:58.26    \nframe=   98 fps=0.5 q=27.2 size=     512KiB time=00:00:01.60 bitrate=2621.7kbits/s speed=0.00895x elapsed=0:02:58.78    \nframe=   99 fps=0.6 q=21.5 size=     512KiB time=00:00:01.61 bitrate=2594.6kbits/s speed=0.00902x elapsed=0:02:59.31    \nframe=  100 fps=0.6 q=26.3 size=     768KiB time=00:00:01.63 bitrate=3852.1kbits/s speed=0.00908x elapsed=0:02:59.83    \nframe=  100 fps=0.6 q=26.3 size=     768KiB time=00:00:01.63 bitrate=3852.1kbits/s speed=0.00906x elapsed=0:03:00.34    \nframe=  101 fps=0.6 q=27.2 size=     768KiB time=00:00:01.65 bitrate=3813.2kbits/s speed=0.00912x elapsed=0:03:00.86    \nframe=  101 fps=0.6 q=27.2 size=     768KiB time=00:00:01.65 bitrate=3813.2kbits/s speed=0.0091x elapsed=0:03:01.38    \nframe=  101 fps=0.6 q=27.2 size=     768KiB time=00:00:01.65 bitrate=3813.2kbits/s speed=0.00907x elapsed=0:03:01.89    \nframe=  102 fps=0.6 q=27.1 size=     768KiB time=00:00:01.66 bitrate=3775.1kbits/s speed=0.00914x elapsed=0:03:02.41    \nframe=  102 fps=0.6 q=27.1 size=     768KiB time=00:00:01.66 bitrate=3775.1kbits/s speed=0.00911x elapsed=0:03:02.92    \nframe=  102 fps=0.6 q=27.1 size=     768KiB time=00:00:01.66 bitrate=3775.1kbits/s speed=0.00909x elapsed=0:03:03.43    \nframe=  103 fps=0.6 q=26.8 size=     768KiB time=00:00:01.68 bitrate=3737.7kbits/s speed=0.00915x elapsed=0:03:03.96    \nframe=  103 fps=0.6 q=26.8 size=     768KiB time=00:00:01.68 bitrate=3737.7kbits/s speed=0.00912x elapsed=0:03:04.47    \nframe=  103 fps=0.6 q=26.8 size=     768KiB time=00:00:01.68 bitrate=3737.7kbits/s speed=0.0091x elapsed=0:03:04.98    \nframe=  105 fps=0.6 q=26.1 size=     768KiB time=00:00:01.71 bitrate=3665.1kbits/s speed=0.00925x elapsed=0:03:05.51    \nframe=  105 fps=0.6 q=26.1 size=     768KiB time=00:00:01.71 bitrate=3665.1kbits/s speed=0.00923x elapsed=0:03:06.04    \nframe=  106 fps=0.6 q=27.1 size=     768KiB time=00:00:01.73 bitrate=3629.9kbits/s speed=0.00929x elapsed=0:03:06.56    \nframe=  106 fps=0.6 q=27.1 size=     768KiB time=00:00:01.73 bitrate=3629.9kbits/s speed=0.00926x elapsed=0:03:07.08    \nframe=  106 fps=0.6 q=27.1 size=     768KiB time=00:00:01.73 bitrate=3629.9kbits/s speed=0.00924x elapsed=0:03:07.59    \nframe=  106 fps=0.6 q=27.1 size=     768KiB time=00:00:01.73 bitrate=3629.9kbits/s speed=0.00921x elapsed=0:03:08.12    \nframe=  107 fps=0.6 q=26.8 size=     768KiB time=00:00:01.75 bitrate=3595.3kbits/s speed=0.00928x elapsed=0:03:08.65    \nframe=  107 fps=0.6 q=26.8 size=     768KiB time=00:00:01.75 bitrate=3595.3kbits/s speed=0.00925x elapsed=0:03:09.16    \nframe=  107 fps=0.6 q=26.8 size=     768KiB time=00:00:01.75 bitrate=3595.3kbits/s speed=0.00923x elapsed=0:03:09.68    \nframe=  108 fps=0.6 q=26.7 size=     768KiB time=00:00:01.76 bitrate=3561.4kbits/s speed=0.00929x elapsed=0:03:10.20    \nframe=  109 fps=0.6 q=20.6 size=     768KiB time=00:00:01.78 bitrate=3528.1kbits/s speed=0.00935x elapsed=0:03:10.73    \nframe=  109 fps=0.6 q=20.6 size=     768KiB time=00:00:01.78 bitrate=3528.1kbits/s speed=0.00932x elapsed=0:03:11.28    \nframe=  110 fps=0.6 q=25.5 size=     768KiB time=00:00:01.80 bitrate=3495.4kbits/s speed=0.00938x elapsed=0:03:11.80    \nframe=  111 fps=0.6 q=27.0 size=     768KiB time=00:00:01.81 bitrate=3463.4kbits/s speed=0.00945x elapsed=0:03:12.32    \nframe=  111 fps=0.6 q=27.0 size=     768KiB time=00:00:01.81 bitrate=3463.4kbits/s speed=0.00942x elapsed=0:03:12.87    \nframe=  111 fps=0.6 q=27.0 size=     768KiB time=00:00:01.81 bitrate=3463.4kbits/s speed=0.00939x elapsed=0:03:13.40    \nframe=  111 fps=0.6 q=27.0 size=     768KiB time=00:00:01.81 bitrate=3463.4kbits/s speed=0.00937x elapsed=0:03:13.98    \nframe=  112 fps=0.6 q=27.1 size=     768KiB time=00:00:01.83 bitrate=3431.9kbits/s speed=0.00942x elapsed=0:03:14.57    \nframe=  112 fps=0.6 q=27.1 size=     768KiB time=00:00:01.83 bitrate=3431.9kbits/s speed=0.00939x elapsed=0:03:15.22    \nframe=  112 fps=0.6 q=27.1 size=     768KiB time=00:00:01.83 bitrate=3431.9kbits/s speed=0.00937x elapsed=0:03:15.73    \nframe=  112 fps=0.6 q=27.1 size=     768KiB time=00:00:01.83 bitrate=3431.9kbits/s speed=0.00934x elapsed=0:03:16.29    \nframe=  112 fps=0.6 q=27.1 size=     768KiB time=00:00:01.83 bitrate=3431.9kbits/s speed=0.00931x elapsed=0:03:16.81    \nframe=  112 fps=0.6 q=27.1 size=     768KiB time=00:00:01.83 bitrate=3431.9kbits/s speed=0.00929x elapsed=0:03:17.39    \nframe=  112 fps=0.6 q=27.1 size=     768KiB time=00:00:01.83 bitrate=3431.9kbits/s speed=0.00926x elapsed=0:03:17.92    \nframe=  112 fps=0.6 q=27.1 size=     768KiB time=00:00:01.83 bitrate=3431.9kbits/s speed=0.00924x elapsed=0:03:18.51    \nframe=  112 fps=0.6 q=27.1 size=     768KiB time=00:00:01.83 bitrate=3431.9kbits/s speed=0.00921x elapsed=0:03:19.04    \nframe=  113 fps=0.6 q=26.7 size=     768KiB time=00:00:01.85 bitrate=3401.0kbits/s speed=0.00927x elapsed=0:03:19.56    \nframe=  113 fps=0.6 q=26.7 size=     768KiB time=00:00:01.85 bitrate=3401.0kbits/s speed=0.00925x elapsed=0:03:20.08    \nframe=  114 fps=0.6 q=20.8 size=     768KiB time=00:00:01.86 bitrate=3370.6kbits/s speed=0.0093x elapsed=0:03:20.61    \nframe=  114 fps=0.6 q=20.8 size=     768KiB time=00:00:01.86 bitrate=3370.6kbits/s speed=0.00928x elapsed=0:03:21.14    \nframe=  114 fps=0.6 q=20.8 size=     768KiB time=00:00:01.86 bitrate=3370.6kbits/s speed=0.00926x elapsed=0:03:21.67    \nframe=  114 fps=0.6 q=20.8 size=     768KiB time=00:00:01.86 bitrate=3370.6kbits/s speed=0.00923x elapsed=0:03:22.17    \nframe=  115 fps=0.6 q=25.5 size=     768KiB time=00:00:01.88 bitrate=3340.8kbits/s speed=0.00929x elapsed=0:03:22.69    \nframe=  115 fps=0.6 q=25.5 size=     768KiB time=00:00:01.88 bitrate=3340.8kbits/s speed=0.00927x elapsed=0:03:23.21    \nframe=  116 fps=0.6 q=27.0 size=     768KiB time=00:00:01.90 bitrate=3311.5kbits/s speed=0.00933x elapsed=0:03:23.73    \nframe=  116 fps=0.6 q=27.0 size=     768KiB time=00:00:01.90 bitrate=3311.5kbits/s speed=0.0093x elapsed=0:03:24.27    \nframe=  116 fps=0.6 q=27.0 size=     768KiB time=00:00:01.90 bitrate=3311.5kbits/s speed=0.00928x elapsed=0:03:24.78    \nframe=  116 fps=0.6 q=27.0 size=     768KiB time=00:00:01.90 bitrate=3311.5kbits/s speed=0.00925x elapsed=0:03:25.31    \nframe=  117 fps=0.6 q=26.4 size=     768KiB time=00:00:01.91 bitrate=3282.7kbits/s speed=0.00931x elapsed=0:03:25.84    \nframe=  117 fps=0.6 q=26.4 size=     768KiB time=00:00:01.91 bitrate=3282.7kbits/s speed=0.00929x elapsed=0:03:26.34    \nframe=  118 fps=0.6 q=25.9 size=     768KiB time=00:00:01.93 bitrate=3254.4kbits/s speed=0.00935x elapsed=0:03:26.86    \nframe=  120 fps=0.6 q=25.6 size=     768KiB time=00:00:01.96 bitrate=3199.2kbits/s speed=0.00948x elapsed=0:03:27.38    \nframe=  121 fps=0.6 q=26.6 size=     768KiB time=00:00:01.98 bitrate=3172.3kbits/s speed=0.00954x elapsed=0:03:27.89    \nframe=  121 fps=0.6 q=26.6 size=     768KiB time=00:00:01.98 bitrate=3172.3kbits/s speed=0.00952x elapsed=0:03:28.41    \nframe=  122 fps=0.6 q=27.3 size=     768KiB time=00:00:02.00 bitrate=3145.9kbits/s speed=0.00957x elapsed=0:03:28.93    \nframe=  123 fps=0.6 q=26.3 size=     768KiB time=00:00:02.01 bitrate=3119.9kbits/s speed=0.00963x elapsed=0:03:29.46    \nframe=  123 fps=0.6 q=26.3 size=     768KiB time=00:00:02.01 bitrate=3119.9kbits/s speed=0.0096x elapsed=0:03:29.99    \nframe=  124 fps=0.6 q=20.5 size=     768KiB time=00:00:02.03 bitrate=3094.3kbits/s speed=0.00966x elapsed=0:03:30.50    \nframe=  125 fps=0.6 q=25.2 size=     768KiB time=00:00:02.05 bitrate=3069.2kbits/s speed=0.00971x elapsed=0:03:31.02    \nframe=  126 fps=0.6 q=27.2 size=     768KiB time=00:00:02.06 bitrate=3044.4kbits/s speed=0.00977x elapsed=0:03:31.53    \nframe=  126 fps=0.6 q=27.2 size=     768KiB time=00:00:02.06 bitrate=3044.4kbits/s speed=0.00975x elapsed=0:03:32.04    \nframe=  128 fps=0.6 q=26.5 size=     768KiB time=00:00:02.10 bitrate=2996.1kbits/s speed=0.00988x elapsed=0:03:32.56    \nframe=  128 fps=0.6 q=26.5 size=     768KiB time=00:00:02.10 bitrate=2996.1kbits/s speed=0.00985x elapsed=0:03:33.09    \nframe=  128 fps=0.6 q=26.5 size=     768KiB time=00:00:02.10 bitrate=2996.1kbits/s speed=0.00983x elapsed=0:03:33.60    \nframe=  129 fps=0.6 q=20.2 size=     768KiB time=00:00:02.11 bitrate=2972.5kbits/s speed=0.00988x elapsed=0:03:34.13    \nframe=  131 fps=0.6 q=27.0 size=    1024KiB time=00:00:02.15 bitrate=3901.8kbits/s speed=0.01x elapsed=0:03:34.65    \nframe=  131 fps=0.6 q=27.0 size=    1024KiB time=00:00:02.15 bitrate=3901.8kbits/s speed=0.00999x elapsed=0:03:35.16    \nframe=  131 fps=0.6 q=27.0 size=    1024KiB time=00:00:02.15 bitrate=3901.8kbits/s speed=0.00997x elapsed=0:03:35.67    \nframe=  132 fps=0.6 q=26.4 size=    1024KiB time=00:00:02.16 bitrate=3871.8kbits/s speed=0.01x elapsed=0:03:36.19    \nframe=  133 fps=0.6 q=26.0 size=    1024KiB time=00:00:02.18 bitrate=3842.3kbits/s speed=0.0101x elapsed=0:03:36.71    \nframe=  134 fps=0.6 q=20.2 size=    1024KiB time=00:00:02.20 bitrate=3813.2kbits/s speed=0.0101x elapsed=0:03:37.23    \nframe=  134 fps=0.6 q=20.2 size=    1024KiB time=00:00:02.20 bitrate=3813.2kbits/s speed=0.0101x elapsed=0:03:37.75    \nframe=  134 fps=0.6 q=20.2 size=    1024KiB time=00:00:02.20 bitrate=3813.2kbits/s speed=0.0101x elapsed=0:03:38.26    \nframe=  135 fps=0.6 q=25.0 size=    1024KiB time=00:00:02.21 bitrate=3784.5kbits/s speed=0.0101x elapsed=0:03:38.78    \nframe=  135 fps=0.6 q=25.0 size=    1024KiB time=00:00:02.21 bitrate=3784.5kbits/s speed=0.0101x elapsed=0:03:39.29    \nframe=  136 fps=0.6 q=26.6 size=    1024KiB time=00:00:02.23 bitrate=3756.3kbits/s speed=0.0102x elapsed=0:03:39.83    \nframe=  137 fps=0.6 q=25.6 size=    1024KiB time=00:00:02.25 bitrate=3728.4kbits/s speed=0.0102x elapsed=0:03:40.34    \nframe=  137 fps=0.6 q=25.6 size=    1024KiB time=00:00:02.25 bitrate=3728.4kbits/s speed=0.0102x elapsed=0:03:40.88    \nframe=  137 fps=0.6 q=25.6 size=    1024KiB time=00:00:02.25 bitrate=3728.4kbits/s speed=0.0102x elapsed=0:03:41.40    \nframe=  138 fps=0.6 q=26.3 size=    1024KiB time=00:00:02.26 bitrate=3701.0kbits/s speed=0.0102x elapsed=0:03:41.92    \nframe=  138 fps=0.6 q=26.3 size=    1024KiB time=00:00:02.26 bitrate=3701.0kbits/s speed=0.0102x elapsed=0:03:42.44    \nframe=  139 fps=0.6 q=21.0 size=    1024KiB time=00:00:02.28 bitrate=3674.0kbits/s speed=0.0102x elapsed=0:03:42.97    \nframe=  139 fps=0.6 q=21.0 size=    1024KiB time=00:00:02.28 bitrate=3674.0kbits/s speed=0.0102x elapsed=0:03:43.51    \nframe=  139 fps=0.6 q=21.0 size=    1024KiB time=00:00:02.28 bitrate=3674.0kbits/s speed=0.0102x elapsed=0:03:44.05    \nframe=  141 fps=0.6 q=27.1 size=    1024KiB time=00:00:02.31 bitrate=3621.1kbits/s speed=0.0103x elapsed=0:03:44.56    \nframe=  141 fps=0.6 q=27.1 size=    1024KiB time=00:00:02.31 bitrate=3621.1kbits/s speed=0.0103x elapsed=0:03:45.09    \nframe=  142 fps=0.6 q=27.1 size=    1024KiB time=00:00:02.33 bitrate=3595.3kbits/s speed=0.0103x elapsed=0:03:45.62    \nframe=  142 fps=0.6 q=27.1 size=    1024KiB time=00:00:02.33 bitrate=3595.3kbits/s speed=0.0103x elapsed=0:03:46.14    \nframe=  142 fps=0.6 q=27.1 size=    1024KiB time=00:00:02.33 bitrate=3595.3kbits/s speed=0.0103x elapsed=0:03:46.66    \nframe=  142 fps=0.6 q=27.1 size=    1024KiB time=00:00:02.33 bitrate=3595.3kbits/s speed=0.0103x elapsed=0:03:47.19    \nframe=  143 fps=0.6 q=20.7 size=    1024KiB time=00:00:02.35 bitrate=3569.8kbits/s speed=0.0103x elapsed=0:03:47.72    \nframe=  144 fps=0.6 q=24.2 size=    1024KiB time=00:00:02.36 bitrate=3544.6kbits/s speed=0.0104x elapsed=0:03:48.23    \nframe=  144 fps=0.6 q=24.2 size=    1024KiB time=00:00:02.36 bitrate=3544.6kbits/s speed=0.0103x elapsed=0:03:48.75    \nframe=  145 fps=0.6 q=27.4 size=    1024KiB time=00:00:02.38 bitrate=3519.8kbits/s speed=0.0104x elapsed=0:03:49.27    \nframe=  145 fps=0.6 q=27.4 size=    1024KiB time=00:00:02.38 bitrate=3519.8kbits/s speed=0.0104x elapsed=0:03:49.80    \nframe=  146 fps=0.6 q=26.3 size=    1024KiB time=00:00:02.40 bitrate=3495.4kbits/s speed=0.0104x elapsed=0:03:50.35    \nframe=  146 fps=0.6 q=26.3 size=    1024KiB time=00:00:02.40 bitrate=3495.4kbits/s speed=0.0104x elapsed=0:03:50.88    \nframe=  146 fps=0.6 q=26.3 size=    1024KiB time=00:00:02.40 bitrate=3495.4kbits/s speed=0.0104x elapsed=0:03:51.40    \nframe=  147 fps=0.6 q=26.8 size=    1024KiB time=00:00:02.41 bitrate=3471.3kbits/s speed=0.0104x elapsed=0:03:51.92    \nframe=  147 fps=0.6 q=26.8 size=    1024KiB time=00:00:02.41 bitrate=3471.3kbits/s speed=0.0104x elapsed=0:03:52.44    \nframe=  148 fps=0.6 q=20.9 size=    1024KiB time=00:00:02.43 bitrate=3447.5kbits/s speed=0.0104x elapsed=0:03:52.96    \nframe=  148 fps=0.6 q=20.9 size=    1024KiB time=00:00:02.43 bitrate=3447.5kbits/s speed=0.0104x elapsed=0:03:53.48    \nframe=  148 fps=0.6 q=20.9 size=    1024KiB time=00:00:02.43 bitrate=3447.5kbits/s speed=0.0104x elapsed=0:03:54.01    \nframe=  148 fps=0.6 q=20.9 size=    1024KiB time=00:00:02.43 bitrate=3447.5kbits/s speed=0.0104x elapsed=0:03:54.54    \nframe=  149 fps=0.6 q=23.6 size=    1024KiB time=00:00:02.45 bitrate=3424.1kbits/s speed=0.0104x elapsed=0:03:55.05    \nframe=  149 fps=0.6 q=23.6 size=    1024KiB time=00:00:02.45 bitrate=3424.1kbits/s speed=0.0104x elapsed=0:03:55.57    \nframe=  150 fps=0.6 q=27.0 size=    1024KiB time=00:00:02.46 bitrate=3400.9kbits/s speed=0.0104x elapsed=0:03:56.09    \nframe=  151 fps=0.6 q=26.7 size=    1024KiB time=00:00:02.48 bitrate=3378.1kbits/s speed=0.0105x elapsed=0:03:56.61    \nframe=  151 fps=0.6 q=26.7 size=    1024KiB time=00:00:02.48 bitrate=3378.1kbits/s speed=0.0105x elapsed=0:03:57.14    \nframe=  151 fps=0.6 q=26.7 size=    1024KiB time=00:00:02.48 bitrate=3378.1kbits/s speed=0.0104x elapsed=0:03:57.65    \nframe=  152 fps=0.6 q=27.0 size=    1024KiB time=00:00:02.50 bitrate=3355.6kbits/s speed=0.0105x elapsed=0:03:58.19    \nframe=  152 fps=0.6 q=27.0 size=    1024KiB time=00:00:02.50 bitrate=3355.6kbits/s speed=0.0105x elapsed=0:03:58.72    \nframe=  153 fps=0.6 q=21.6 size=    1024KiB time=00:00:02.51 bitrate=3333.4kbits/s speed=0.0105x elapsed=0:03:59.24    \nframe=  153 fps=0.6 q=21.6 size=    1024KiB time=00:00:02.51 bitrate=3333.4kbits/s speed=0.0105x elapsed=0:03:59.76    \nframe=  153 fps=0.6 q=21.6 size=    1024KiB time=00:00:02.51 bitrate=3333.4kbits/s speed=0.0105x elapsed=0:04:00.29    \nframe=  154 fps=0.6 q=24.1 size=    1024KiB time=00:00:02.53 bitrate=3311.4kbits/s speed=0.0105x elapsed=0:04:00.79    \nframe=  155 fps=0.6 q=27.6 size=    1024KiB time=00:00:02.55 bitrate=3289.8kbits/s speed=0.0106x elapsed=0:04:01.31    \nframe=  155 fps=0.6 q=27.6 size=    1024KiB time=00:00:02.55 bitrate=3289.8kbits/s speed=0.0105x elapsed=0:04:01.83    \nframe=  156 fps=0.6 q=27.6 size=    1024KiB time=00:00:02.56 bitrate=3268.4kbits/s speed=0.0106x elapsed=0:04:02.34    \nframe=  156 fps=0.6 q=27.6 size=    1024KiB time=00:00:02.56 bitrate=3268.4kbits/s speed=0.0106x elapsed=0:04:02.86    \nframe=  157 fps=0.6 q=28.0 size=    1024KiB time=00:00:02.58 bitrate=3247.3kbits/s speed=0.0106x elapsed=0:04:03.38    \nframe=  157 fps=0.6 q=28.0 size=    1024KiB time=00:00:02.58 bitrate=3247.3kbits/s speed=0.0106x elapsed=0:04:03.89    \nframe=  157 fps=0.6 q=28.0 size=    1024KiB time=00:00:02.58 bitrate=3247.3kbits/s speed=0.0106x elapsed=0:04:04.41    \nframe=  158 fps=0.6 q=21.6 size=    1024KiB time=00:00:02.60 bitrate=3226.5kbits/s speed=0.0106x elapsed=0:04:04.94    \nframe=  159 fps=0.6 q=26.5 size=    1024KiB time=00:00:02.61 bitrate=3206.0kbits/s speed=0.0107x elapsed=0:04:05.45    \nframe=  159 fps=0.6 q=26.5 size=    1024KiB time=00:00:02.61 bitrate=3206.0kbits/s speed=0.0106x elapsed=0:04:05.97    \nframe=  160 fps=0.6 q=27.9 size=    1024KiB time=00:00:02.63 bitrate=3185.7kbits/s speed=0.0107x elapsed=0:04:06.49    \nframe=  161 fps=0.7 q=28.0 size=    1024KiB time=00:00:02.65 bitrate=3165.6kbits/s speed=0.0107x elapsed=0:04:07.02    \nframe=  161 fps=0.7 q=28.0 size=    1024KiB time=00:00:02.65 bitrate=3165.6kbits/s speed=0.0107x elapsed=0:04:07.54    \nframe=  161 fps=0.6 q=28.0 size=    1024KiB time=00:00:02.65 bitrate=3165.6kbits/s speed=0.0107x elapsed=0:04:08.06    \nframe=  161 fps=0.6 q=28.0 size=    1024KiB time=00:00:02.65 bitrate=3165.6kbits/s speed=0.0107x elapsed=0:04:08.59    \nframe=  162 fps=0.7 q=28.0 size=    1024KiB time=00:00:02.66 bitrate=3145.9kbits/s speed=0.0107x elapsed=0:04:09.11    \nframe=  163 fps=0.7 q=22.0 size=    1280KiB time=00:00:02.68 bitrate=3907.9kbits/s speed=0.0107x elapsed=0:04:09.63    \nframe=  164 fps=0.7 q=25.1 size=    1280KiB time=00:00:02.70 bitrate=3883.7kbits/s speed=0.0108x elapsed=0:04:10.14    \nframe=  164 fps=0.7 q=25.1 size=    1280KiB time=00:00:02.70 bitrate=3883.7kbits/s speed=0.0108x elapsed=0:04:10.70    \nframe=  164 fps=0.7 q=25.1 size=    1280KiB time=00:00:02.70 bitrate=3883.7kbits/s speed=0.0107x elapsed=0:04:11.32    \nframe=  164 fps=0.7 q=25.1 size=    1280KiB time=00:00:02.70 bitrate=3883.7kbits/s speed=0.0107x elapsed=0:04:11.86    \nframe=  165 fps=0.7 q=28.0 size=    1280KiB time=00:00:02.71 bitrate=3859.9kbits/s speed=0.0108x elapsed=0:04:12.42    \nframe=  165 fps=0.7 q=28.0 size=    1280KiB time=00:00:02.71 bitrate=3859.9kbits/s speed=0.0107x elapsed=0:04:12.94    \nframe=  166 fps=0.7 q=28.0 size=    1280KiB time=00:00:02.73 bitrate=3836.4kbits/s speed=0.0108x elapsed=0:04:13.45    \nframe=  166 fps=0.7 q=28.0 size=    1280KiB time=00:00:02.73 bitrate=3836.4kbits/s speed=0.0108x elapsed=0:04:13.98    \nframe=  166 fps=0.7 q=28.0 size=    1280KiB time=00:00:02.73 bitrate=3836.4kbits/s speed=0.0107x elapsed=0:04:14.51    \nframe=  166 fps=0.7 q=28.0 size=    1280KiB time=00:00:02.73 bitrate=3836.4kbits/s speed=0.0107x elapsed=0:04:15.03    \nframe=  167 fps=0.7 q=22.2 size=    1280KiB time=00:00:02.75 bitrate=3813.1kbits/s speed=0.0108x elapsed=0:04:15.59    \nframe=  168 fps=0.7 q=25.2 size=    1280KiB time=00:00:02.76 bitrate=3790.2kbits/s speed=0.0108x elapsed=0:04:16.11    \nframe=  169 fps=0.7 q=28.0 size=    1280KiB time=00:00:02.78 bitrate=3767.5kbits/s speed=0.0108x elapsed=0:04:16.62    \nframe=  169 fps=0.7 q=28.0 size=    1280KiB time=00:00:02.78 bitrate=3767.5kbits/s speed=0.0108x elapsed=0:04:17.14    \nframe=  169 fps=0.7 q=28.0 size=    1280KiB time=00:00:02.78 bitrate=3767.5kbits/s speed=0.0108x elapsed=0:04:17.69    \nframe=  169 fps=0.7 q=28.0 size=    1280KiB time=00:00:02.78 bitrate=3767.5kbits/s speed=0.0108x elapsed=0:04:18.20    \nframe=  170 fps=0.7 q=28.6 size=    1280KiB time=00:00:02.80 bitrate=3745.0kbits/s speed=0.0108x elapsed=0:04:18.72    \nframe=  171 fps=0.7 q=21.8 size=    1280KiB time=00:00:02.81 bitrate=3722.9kbits/s speed=0.0109x elapsed=0:04:19.24    \nframe=  171 fps=0.7 q=21.8 size=    1280KiB time=00:00:02.81 bitrate=3722.9kbits/s speed=0.0108x elapsed=0:04:19.79    \nframe=  171 fps=0.7 q=21.8 size=    1280KiB time=00:00:02.81 bitrate=3722.9kbits/s speed=0.0108x elapsed=0:04:20.31    \nframe=  172 fps=0.7 q=25.3 size=    1280KiB time=00:00:02.83 bitrate=3701.0kbits/s speed=0.0109x elapsed=0:04:20.84    \nframe=  172 fps=0.7 q=25.3 size=    1280KiB time=00:00:02.83 bitrate=3701.0kbits/s speed=0.0108x elapsed=0:04:21.34    \nframe=  173 fps=0.7 q=28.3 size=    1280KiB time=00:00:02.85 bitrate=3679.3kbits/s speed=0.0109x elapsed=0:04:21.87    \nframe=  173 fps=0.7 q=28.3 size=    1280KiB time=00:00:02.85 bitrate=3679.3kbits/s speed=0.0109x elapsed=0:04:22.41    \nframe=  173 fps=0.7 q=28.3 size=    1280KiB time=00:00:02.85 bitrate=3679.3kbits/s speed=0.0108x elapsed=0:04:22.95    \nframe=  173 fps=0.7 q=28.3 size=    1280KiB time=00:00:02.85 bitrate=3679.3kbits/s speed=0.0108x elapsed=0:04:23.47    \nframe=  174 fps=0.7 q=28.3 size=    1280KiB time=00:00:02.86 bitrate=3657.9kbits/s speed=0.0109x elapsed=0:04:23.99    \nframe=  174 fps=0.7 q=28.3 size=    1280KiB time=00:00:02.86 bitrate=3657.9kbits/s speed=0.0108x elapsed=0:04:24.52    \nframe=  174 fps=0.7 q=28.3 size=    1280KiB time=00:00:02.86 bitrate=3657.9kbits/s speed=0.0108x elapsed=0:04:25.06    \nframe=  175 fps=0.7 q=21.9 size=    1280KiB time=00:00:02.88 bitrate=3636.8kbits/s speed=0.0109x elapsed=0:04:25.58    \nframe=  177 fps=0.7 q=28.4 size=    1280KiB time=00:00:02.90 bitrate=3615.9kbits/s speed=0.0109x elapsed=0:04:26.11    \nframe=  177 fps=0.7 q=28.4 size=    1280KiB time=00:00:02.91 bitrate=3595.2kbits/s speed=0.0109x elapsed=0:04:26.65    \nframe=  177 fps=0.7 q=28.4 size=    1280KiB time=00:00:02.91 bitrate=3595.2kbits/s speed=0.0109x elapsed=0:04:27.17    \nframe=  177 fps=0.7 q=28.4 size=    1280KiB time=00:00:02.91 bitrate=3595.2kbits/s speed=0.0109x elapsed=0:04:27.69    \nframe=  177 fps=0.7 q=28.4 size=    1280KiB time=00:00:02.91 bitrate=3595.2kbits/s speed=0.0109x elapsed=0:04:28.22    \nframe=  178 fps=0.7 q=28.5 size=    1280KiB time=00:00:02.93 bitrate=3574.8kbits/s speed=0.0109x elapsed=0:04:28.74    \nframe=  179 fps=0.7 q=22.1 size=    1280KiB time=00:00:02.95 bitrate=3554.6kbits/s speed=0.011x elapsed=0:04:29.26    \nframe=  179 fps=0.7 q=22.1 size=    1280KiB time=00:00:02.95 bitrate=3554.6kbits/s speed=0.0109x elapsed=0:04:29.79    \nframe=  179 fps=0.7 q=22.1 size=    1280KiB time=00:00:02.95 bitrate=3554.6kbits/s speed=0.0109x elapsed=0:04:30.34    \nframe=  180 fps=0.7 q=25.6 size=    1280KiB time=00:00:02.96 bitrate=3534.6kbits/s speed=0.011x elapsed=0:04:30.91    \nframe=  181 fps=0.7 q=28.3 size=    1280KiB time=00:00:02.98 bitrate=3514.9kbits/s speed=0.011x elapsed=0:04:31.44    \nframe=  181 fps=0.7 q=28.3 size=    1280KiB time=00:00:02.98 bitrate=3514.9kbits/s speed=0.011x elapsed=0:04:31.95    \nframe=  182 fps=0.7 q=28.3 size=    1280KiB time=00:00:03.00 bitrate=3495.4kbits/s speed=0.011x elapsed=0:04:32.48    \nframe=  182 fps=0.7 q=28.3 size=    1280KiB time=00:00:03.00 bitrate=3495.4kbits/s speed=0.011x elapsed=0:04:33.01    \nframe=  182 fps=0.7 q=28.3 size=    1280KiB time=00:00:03.00 bitrate=3495.4kbits/s speed=0.011x elapsed=0:04:33.53    \nframe=  183 fps=0.7 q=21.9 size=    1280KiB time=00:00:03.01 bitrate=3476.1kbits/s speed=0.011x elapsed=0:04:34.05    \nframe=  183 fps=0.7 q=21.9 size=    1280KiB time=00:00:03.01 bitrate=3476.1kbits/s speed=0.011x elapsed=0:04:34.56    \nframe=  183 fps=0.7 q=21.9 size=    1280KiB time=00:00:03.01 bitrate=3476.1kbits/s speed=0.011x elapsed=0:04:35.08    \nframe=  184 fps=0.7 q=25.5 size=    1280KiB time=00:00:03.03 bitrate=3457.0kbits/s speed=0.011x elapsed=0:04:35.60    \nframe=  184 fps=0.7 q=25.5 size=    1280KiB time=00:00:03.03 bitrate=3457.0kbits/s speed=0.011x elapsed=0:04:36.11    \nframe=  185 fps=0.7 q=29.0 size=    1280KiB time=00:00:03.05 bitrate=3438.1kbits/s speed=0.011x elapsed=0:04:36.64    \nframe=  186 fps=0.7 q=29.0 size=    1280KiB time=00:00:03.06 bitrate=3419.4kbits/s speed=0.0111x elapsed=0:04:37.15    \nframe=  186 fps=0.7 q=29.0 size=    1280KiB time=00:00:03.06 bitrate=3419.4kbits/s speed=0.011x elapsed=0:04:37.67    \nframe=  186 fps=0.7 q=29.0 size=    1280KiB time=00:00:03.06 bitrate=3419.4kbits/s speed=0.011x elapsed=0:04:38.20    \nframe=  186 fps=0.7 q=29.0 size=    1280KiB time=00:00:03.06 bitrate=3419.4kbits/s speed=0.011x elapsed=0:04:38.73    \nframe=  187 fps=0.7 q=22.0 size=    1280KiB time=00:00:03.08 bitrate=3400.9kbits/s speed=0.011x elapsed=0:04:39.26    \nframe=  187 fps=0.7 q=22.0 size=    1280KiB time=00:00:03.08 bitrate=3400.9kbits/s speed=0.011x elapsed=0:04:39.77    \nframe=  187 fps=0.7 q=22.0 size=    1280KiB time=00:00:03.08 bitrate=3400.9kbits/s speed=0.011x elapsed=0:04:40.29    \nframe=  188 fps=0.7 q=25.9 size=    1536KiB time=00:00:03.10 bitrate=4059.1kbits/s speed=0.011x elapsed=0:04:40.81    \nframe=  189 fps=0.7 q=29.2 size=    1536KiB time=00:00:03.11 bitrate=4037.4kbits/s speed=0.0111x elapsed=0:04:41.33    \nframe=  190 fps=0.7 q=29.3 size=    1536KiB time=00:00:03.13 bitrate=4015.9kbits/s speed=0.0111x elapsed=0:04:41.84    \nframe=  190 fps=0.7 q=29.3 size=    1536KiB time=00:00:03.13 bitrate=4015.9kbits/s speed=0.0111x elapsed=0:04:42.37    \nframe=  190 fps=0.7 q=29.3 size=    1536KiB time=00:00:03.13 bitrate=4015.9kbits/s speed=0.0111x elapsed=0:04:42.90    \nframe=  191 fps=0.7 q=21.9 size=    1536KiB time=00:00:03.15 bitrate=3994.7kbits/s speed=0.0111x elapsed=0:04:43.41    \nframe=  191 fps=0.7 q=21.9 size=    1536KiB time=00:00:03.15 bitrate=3994.7kbits/s speed=0.0111x elapsed=0:04:43.93    \nframe=  192 fps=0.7 q=26.6 size=    1536KiB time=00:00:03.16 bitrate=3973.7kbits/s speed=0.0111x elapsed=0:04:44.43    \nframe=  193 fps=0.7 q=29.4 size=    1536KiB time=00:00:03.18 bitrate=3952.9kbits/s speed=0.0112x elapsed=0:04:44.97    \nframe=  194 fps=0.7 q=29.3 size=    1536KiB time=00:00:03.20 bitrate=3932.3kbits/s speed=0.0112x elapsed=0:04:45.48    \nframe=  194 fps=0.7 q=29.3 size=    1536KiB time=00:00:03.20 bitrate=3932.3kbits/s speed=0.0112x elapsed=0:04:46.01    \nframe=  195 fps=0.7 q=22.2 size=    1536KiB time=00:00:03.21 bitrate=3911.9kbits/s speed=0.0112x elapsed=0:04:46.52    \nframe=  196 fps=0.7 q=26.3 size=    1536KiB time=00:00:03.23 bitrate=3891.7kbits/s speed=0.0113x elapsed=0:04:47.03    \nframe=  197 fps=0.7 q=29.6 size=    1536KiB time=00:00:03.25 bitrate=3871.8kbits/s speed=0.0113x elapsed=0:04:47.55    \nframe=  198 fps=0.7 q=29.6 size=    1536KiB time=00:00:03.26 bitrate=3852.0kbits/s speed=0.0113x elapsed=0:04:48.08    \nframe=  198 fps=0.7 q=29.6 size=    1536KiB time=00:00:03.26 bitrate=3852.0kbits/s speed=0.0113x elapsed=0:04:48.61    \nframe=  198 fps=0.7 q=29.6 size=    1536KiB time=00:00:03.26 bitrate=3852.0kbits/s speed=0.0113x elapsed=0:04:49.17    \nframe=  198 fps=0.7 q=29.6 size=    1536KiB time=00:00:03.26 bitrate=3852.0kbits/s speed=0.0113x elapsed=0:04:49.70    \nframe=  198 fps=0.7 q=29.6 size=    1536KiB time=00:00:03.26 bitrate=3852.0kbits/s speed=0.0113x elapsed=0:04:50.21    \nframe=  199 fps=0.7 q=22.4 size=    1536KiB time=00:00:03.28 bitrate=3832.5kbits/s speed=0.0113x elapsed=0:04:50.73    \nframe=  199 fps=0.7 q=22.4 size=    1536KiB time=00:00:03.28 bitrate=3832.5kbits/s speed=0.0113x elapsed=0:04:51.26    \nframe=  199 fps=0.7 q=22.4 size=    1536KiB time=00:00:03.28 bitrate=3832.5kbits/s speed=0.0113x elapsed=0:04:51.78    \nframe=  200 fps=0.7 q=26.3 size=    1536KiB time=00:00:03.30 bitrate=3813.1kbits/s speed=0.0113x elapsed=0:04:52.33    \nframe=  201 fps=0.7 q=29.4 size=    1536KiB time=00:00:03.31 bitrate=3793.9kbits/s speed=0.0113x elapsed=0:04:52.88    \nframe=  202 fps=0.7 q=29.6 size=    1536KiB time=00:00:03.33 bitrate=3775.0kbits/s speed=0.0114x elapsed=0:04:53.39    \nframe=  203 fps=0.7 q=22.4 size=    1536KiB time=00:00:03.35 bitrate=3756.2kbits/s speed=0.0114x elapsed=0:04:53.91    \nframe=  204 fps=0.7 q=26.2 size=    1536KiB time=00:00:03.36 bitrate=3737.6kbits/s speed=0.0114x elapsed=0:04:54.42    \nframe=  205 fps=0.7 q=29.6 size=    1536KiB time=00:00:03.38 bitrate=3719.2kbits/s speed=0.0115x elapsed=0:04:54.94    \nframe=  205 fps=0.7 q=29.6 size=    1536KiB time=00:00:03.38 bitrate=3719.2kbits/s speed=0.0115x elapsed=0:04:55.46    \nframe=  206 fps=0.7 q=29.5 size=    1536KiB time=00:00:03.40 bitrate=3701.0kbits/s speed=0.0115x elapsed=0:04:55.97    \nframe=  207 fps=0.7 q=22.4 size=    1536KiB time=00:00:03.41 bitrate=3682.9kbits/s speed=0.0115x elapsed=0:04:56.49    \nframe=  208 fps=0.7 q=26.3 size=    1536KiB time=00:00:03.43 bitrate=3665.0kbits/s speed=0.0116x elapsed=0:04:57.01    \nframe=  209 fps=0.7 q=29.1 size=    1536KiB time=00:00:03.45 bitrate=3647.3kbits/s speed=0.0116x elapsed=0:04:57.51    \nframe=  210 fps=0.7 q=29.0 size=    1536KiB time=00:00:03.46 bitrate=3629.8kbits/s speed=0.0116x elapsed=0:04:58.04    \nframe=  210 fps=0.7 q=29.0 size=    1536KiB time=00:00:03.46 bitrate=3629.8kbits/s speed=0.0116x elapsed=0:04:58.55    \nframe=  212 fps=0.7 q=26.2 size=    1536KiB time=00:00:03.50 bitrate=3595.2kbits/s speed=0.0117x elapsed=0:04:59.06    \nframe=  212 fps=0.7 q=26.2 size=    1536KiB time=00:00:03.50 bitrate=3595.2kbits/s speed=0.0117x elapsed=0:04:59.58    \nframe=  212 fps=0.7 q=26.2 size=    1536KiB time=00:00:03.50 bitrate=3595.2kbits/s speed=0.0117x elapsed=0:05:00.11    \nframe=  212 fps=0.7 q=26.2 size=    1536KiB time=00:00:03.50 bitrate=3595.2kbits/s speed=0.0116x elapsed=0:05:00.62    \nframe=  213 fps=0.7 q=29.3 size=    1536KiB time=00:00:03.51 bitrate=3578.2kbits/s speed=0.0117x elapsed=0:05:01.14    \nframe=  214 fps=0.7 q=29.4 size=    1536KiB time=00:00:03.53 bitrate=3561.3kbits/s speed=0.0117x elapsed=0:05:01.66    \nframe=  214 fps=0.7 q=29.4 size=    1536KiB time=00:00:03.53 bitrate=3561.3kbits/s speed=0.0117x elapsed=0:05:02.20    \nframe=  214 fps=0.7 q=29.4 size=    1536KiB time=00:00:03.53 bitrate=3561.3kbits/s speed=0.0117x elapsed=0:05:02.73    \nframe=  215 fps=0.7 q=22.2 size=    1536KiB time=00:00:03.55 bitrate=3544.6kbits/s speed=0.0117x elapsed=0:05:03.25    \nframe=  215 fps=0.7 q=22.2 size=    1536KiB time=00:00:03.55 bitrate=3544.6kbits/s speed=0.0117x elapsed=0:05:03.78    \nframe=  215 fps=0.7 q=22.2 size=    1536KiB time=00:00:03.55 bitrate=3544.6kbits/s speed=0.0117x elapsed=0:05:04.33    \nframe=  215 fps=0.7 q=22.2 size=    1536KiB time=00:00:03.55 bitrate=3544.6kbits/s speed=0.0116x elapsed=0:05:04.85    \nframe=  216 fps=0.7 q=26.9 size=    1536KiB time=00:00:03.56 bitrate=3528.0kbits/s speed=0.0117x elapsed=0:05:05.39    \nframe=  217 fps=0.7 q=29.2 size=    1792KiB time=00:00:03.58 bitrate=4096.9kbits/s speed=0.0117x elapsed=0:05:05.92    \nframe=  217 fps=0.7 q=29.2 size=    1792KiB time=00:00:03.58 bitrate=4096.9kbits/s speed=0.0117x elapsed=0:05:06.46    \nframe=  217 fps=0.7 q=29.2 size=    1792KiB time=00:00:03.58 bitrate=4096.9kbits/s speed=0.0117x elapsed=0:05:06.98    \nframe=  218 fps=0.7 q=28.9 size=    1792KiB time=00:00:03.60 bitrate=4077.9kbits/s speed=0.0117x elapsed=0:05:07.51    \nframe=  219 fps=0.7 q=22.0 size=    1792KiB time=00:00:03.61 bitrate=4059.1kbits/s speed=0.0117x elapsed=0:05:08.07    \nframe=  219 fps=0.7 q=22.0 size=    1792KiB time=00:00:03.61 bitrate=4059.1kbits/s speed=0.0117x elapsed=0:05:08.58    \nframe=  220 fps=0.7 q=26.2 size=    1792KiB time=00:00:03.63 bitrate=4040.5kbits/s speed=0.0118x elapsed=0:05:09.10    \nframe=  220 fps=0.7 q=26.2 size=    1792KiB time=00:00:03.63 bitrate=4040.5kbits/s speed=0.0117x elapsed=0:05:09.62    \nframe=  221 fps=0.7 q=29.2 size=    1792KiB time=00:00:03.65 bitrate=4022.0kbits/s speed=0.0118x elapsed=0:05:10.15    \nframe=  222 fps=0.7 q=29.4 size=    1792KiB time=00:00:03.66 bitrate=4003.7kbits/s speed=0.0118x elapsed=0:05:10.66    \nframe=  222 fps=0.7 q=29.4 size=    1792KiB time=00:00:03.66 bitrate=4003.7kbits/s speed=0.0118x elapsed=0:05:11.19    \nframe=  222 fps=0.7 q=29.4 size=    1792KiB time=00:00:03.66 bitrate=4003.7kbits/s speed=0.0118x elapsed=0:05:11.72    \nframe=  222 fps=0.7 q=29.4 size=    1792KiB time=00:00:03.66 bitrate=4003.7kbits/s speed=0.0117x elapsed=0:05:12.24    \nframe=  223 fps=0.7 q=22.1 size=    1792KiB time=00:00:03.68 bitrate=3985.6kbits/s speed=0.0118x elapsed=0:05:12.76    \nframe=  224 fps=0.7 q=26.5 size=    1792KiB time=00:00:03.70 bitrate=3967.7kbits/s speed=0.0118x elapsed=0:05:13.30    \nframe=  225 fps=0.7 q=29.4 size=    1792KiB time=00:00:03.71 bitrate=3949.9kbits/s speed=0.0118x elapsed=0:05:13.82    \nframe=  225 fps=0.7 q=29.4 size=    1792KiB time=00:00:03.71 bitrate=3949.9kbits/s speed=0.0118x elapsed=0:05:14.34    \nframe=  226 fps=0.7 q=29.3 size=    1792KiB time=00:00:03.73 bitrate=3932.3kbits/s speed=0.0119x elapsed=0:05:14.86    \nframe=  226 fps=0.7 q=29.3 size=    1792KiB time=00:00:03.73 bitrate=3932.3kbits/s speed=0.0118x elapsed=0:05:15.38    \nframe=  226 fps=0.7 q=29.3 size=    1792KiB time=00:00:03.73 bitrate=3932.3kbits/s speed=0.0118x elapsed=0:05:15.89    \nframe=  226 fps=0.7 q=29.3 size=    1792KiB time=00:00:03.73 bitrate=3932.3kbits/s speed=0.0118x elapsed=0:05:16.41    \nframe=  228 fps=0.7 q=26.2 size=    1792KiB time=00:00:03.76 bitrate=3897.5kbits/s speed=0.0119x elapsed=0:05:16.93    \nframe=  228 fps=0.7 q=26.2 size=    1792KiB time=00:00:03.76 bitrate=3897.5kbits/s speed=0.0119x elapsed=0:05:17.45    \nframe=  228 fps=0.7 q=26.2 size=    1792KiB time=00:00:03.76 bitrate=3897.5kbits/s speed=0.0118x elapsed=0:05:17.97    \nframe=  229 fps=0.7 q=29.3 size=    1792KiB time=00:00:03.78 bitrate=3880.3kbits/s speed=0.0119x elapsed=0:05:18.50    \nframe=  230 fps=0.7 q=28.9 size=    1792KiB time=00:00:03.80 bitrate=3863.3kbits/s speed=0.0119x elapsed=0:05:19.03    \nframe=  230 fps=0.7 q=28.9 size=    1792KiB time=00:00:03.80 bitrate=3863.3kbits/s speed=0.0119x elapsed=0:05:19.55    \nframe=  230 fps=0.7 q=28.9 size=    1792KiB time=00:00:03.80 bitrate=3863.3kbits/s speed=0.0119x elapsed=0:05:20.07    \nframe=  230 fps=0.7 q=28.9 size=    1792KiB time=00:00:03.80 bitrate=3863.3kbits/s speed=0.0119x elapsed=0:05:20.59    \nframe=  231 fps=0.7 q=21.8 size=    1792KiB time=00:00:03.81 bitrate=3846.4kbits/s speed=0.0119x elapsed=0:05:21.13    \nframe=  232 fps=0.7 q=26.0 size=    1792KiB time=00:00:03.83 bitrate=3829.7kbits/s speed=0.0119x elapsed=0:05:21.65    \nframe=  232 fps=0.7 q=26.0 size=    1792KiB time=00:00:03.83 bitrate=3829.7kbits/s speed=0.0119x elapsed=0:05:22.19    \nframe=  232 fps=0.7 q=26.0 size=    1792KiB time=00:00:03.83 bitrate=3829.7kbits/s speed=0.0119x elapsed=0:05:22.71    \nframe=  233 fps=0.7 q=29.2 size=    1792KiB time=00:00:03.85 bitrate=3813.1kbits/s speed=0.0119x elapsed=0:05:23.23    \nframe=  233 fps=0.7 q=29.2 size=    1792KiB time=00:00:03.85 bitrate=3813.1kbits/s speed=0.0119x elapsed=0:05:23.76    \nframe=  234 fps=0.7 q=29.3 size=    1792KiB time=00:00:03.86 bitrate=3796.7kbits/s speed=0.0119x elapsed=0:05:24.28    \nframe=  234 fps=0.7 q=29.3 size=    1792KiB time=00:00:03.86 bitrate=3796.7kbits/s speed=0.0119x elapsed=0:05:24.80    \nframe=  234 fps=0.7 q=29.3 size=    1792KiB time=00:00:03.86 bitrate=3796.7kbits/s speed=0.0119x elapsed=0:05:25.31    \nframe=  236 fps=0.7 q=25.8 size=    1792KiB time=00:00:03.90 bitrate=3764.2kbits/s speed=0.012x elapsed=0:05:25.83    \nframe=  236 fps=0.7 q=25.8 size=    1792KiB time=00:00:03.90 bitrate=3764.2kbits/s speed=0.0119x elapsed=0:05:26.36    \nframe=  236 fps=0.7 q=25.8 size=    1792KiB time=00:00:03.90 bitrate=3764.2kbits/s speed=0.0119x elapsed=0:05:26.88    \nframe=  237 fps=0.7 q=29.3 size=    1792KiB time=00:00:03.91 bitrate=3748.2kbits/s speed=0.012x elapsed=0:05:27.40    \nframe=  238 fps=0.7 q=29.2 size=    1792KiB time=00:00:03.93 bitrate=3732.3kbits/s speed=0.012x elapsed=0:05:27.91    \nframe=  238 fps=0.7 q=29.2 size=    1792KiB time=00:00:03.93 bitrate=3732.3kbits/s speed=0.012x elapsed=0:05:28.44    \nframe=  239 fps=0.7 q=22.0 size=    1792KiB time=00:00:03.95 bitrate=3716.6kbits/s speed=0.012x elapsed=0:05:28.95    \nframe=  240 fps=0.7 q=25.4 size=    1792KiB time=00:00:03.96 bitrate=3700.9kbits/s speed=0.012x elapsed=0:05:29.48    \nframe=  240 fps=0.7 q=25.4 size=    1792KiB time=00:00:03.96 bitrate=3700.9kbits/s speed=0.012x elapsed=0:05:30.00    \nframe=  240 fps=0.7 q=25.4 size=    1792KiB time=00:00:03.96 bitrate=3700.9kbits/s speed=0.012x elapsed=0:05:30.53    \nframe=  240 fps=0.7 q=25.4 size=    1792KiB time=00:00:03.96 bitrate=3700.9kbits/s speed=0.012x elapsed=0:05:31.05    \nframe=  241 fps=0.7 q=29.0 size=    1792KiB time=00:00:03.98 bitrate=3685.5kbits/s speed=0.012x elapsed=0:05:31.63    \nframe=  241 fps=0.7 q=29.0 size=    1792KiB time=00:00:03.98 bitrate=3685.5kbits/s speed=0.012x elapsed=0:05:32.19    \nframe=  241 fps=0.7 q=29.0 size=    1792KiB time=00:00:03.98 bitrate=3685.5kbits/s speed=0.012x elapsed=0:05:32.71    \nframe=  241 fps=0.7 q=29.0 size=    1792KiB time=00:00:03.98 bitrate=3685.5kbits/s speed=0.0119x elapsed=0:05:33.33    \nframe=  241 fps=0.7 q=29.0 size=    1792KiB time=00:00:03.98 bitrate=3685.5kbits/s speed=0.0119x elapsed=0:05:33.90    \nframe=  241 fps=0.7 q=29.0 size=    1792KiB time=00:00:03.98 bitrate=3685.5kbits/s speed=0.0119x elapsed=0:05:34.48    \nframe=  242 fps=0.7 q=29.0 size=    1792KiB time=00:00:04.00 bitrate=3670.1kbits/s speed=0.0119x elapsed=0:05:35.00    \nframe=  242 fps=0.7 q=29.0 size=    1792KiB time=00:00:04.00 bitrate=3670.1kbits/s speed=0.0119x elapsed=0:05:35.54    \nframe=  242 fps=0.7 q=29.0 size=    1792KiB time=00:00:04.00 bitrate=3670.1kbits/s speed=0.0119x elapsed=0:05:36.07    \nframe=  242 fps=0.7 q=29.0 size=    1792KiB time=00:00:04.00 bitrate=3670.1kbits/s speed=0.0119x elapsed=0:05:36.62    \nframe=  242 fps=0.7 q=29.0 size=    1792KiB time=00:00:04.00 bitrate=3670.1kbits/s speed=0.0119x elapsed=0:05:37.14    \nframe=  242 fps=0.7 q=29.0 size=    1792KiB time=00:00:04.00 bitrate=3670.1kbits/s speed=0.0118x elapsed=0:05:37.66    \nframe=  244 fps=0.7 q=25.4 size=    1792KiB time=00:00:04.03 bitrate=3639.8kbits/s speed=0.0119x elapsed=0:05:38.20    \nframe=  244 fps=0.7 q=25.4 size=    1792KiB time=00:00:04.03 bitrate=3639.8kbits/s speed=0.0119x elapsed=0:05:38.73    \nframe=  245 fps=0.7 q=28.8 size=    1792KiB time=00:00:04.05 bitrate=3624.8kbits/s speed=0.0119x elapsed=0:05:39.26    \nframe=  245 fps=0.7 q=28.8 size=    1792KiB time=00:00:04.05 bitrate=3624.8kbits/s speed=0.0119x elapsed=0:05:39.80    \nframe=  245 fps=0.7 q=28.8 size=    1792KiB time=00:00:04.05 bitrate=3624.8kbits/s speed=0.0119x elapsed=0:05:40.34    \nframe=  246 fps=0.7 q=28.8 size=    1792KiB time=00:00:04.06 bitrate=3609.9kbits/s speed=0.0119x elapsed=0:05:40.86    \nframe=  246 fps=0.7 q=28.8 size=    1792KiB time=00:00:04.06 bitrate=3609.9kbits/s speed=0.0119x elapsed=0:05:41.38    \nframe=  246 fps=0.7 q=28.8 size=    1792KiB time=00:00:04.06 bitrate=3609.9kbits/s speed=0.0119x elapsed=0:05:41.89    \nframe=  246 fps=0.7 q=28.8 size=    1792KiB time=00:00:04.06 bitrate=3609.9kbits/s speed=0.0119x elapsed=0:05:42.41    \nframe=  247 fps=0.7 q=22.1 size=    1792KiB time=00:00:04.08 bitrate=3595.2kbits/s speed=0.0119x elapsed=0:05:42.92    \nframe=  247 fps=0.7 q=22.1 size=    1792KiB time=00:00:04.08 bitrate=3595.2kbits/s speed=0.0119x elapsed=0:05:43.44    \nframe=  248 fps=0.7 q=26.0 size=    1792KiB time=00:00:04.10 bitrate=3580.6kbits/s speed=0.0119x elapsed=0:05:43.95    \nframe=  249 fps=0.7 q=28.8 size=    1792KiB time=00:00:04.11 bitrate=3566.1kbits/s speed=0.0119x elapsed=0:05:44.50    \nframe=  250 fps=0.7 q=28.5 size=    1792KiB time=00:00:04.13 bitrate=3551.7kbits/s speed=0.012x elapsed=0:05:45.02    \nframe=  250 fps=0.7 q=28.5 size=    1792KiB time=00:00:04.13 bitrate=3551.7kbits/s speed=0.012x elapsed=0:05:45.53    \nframe=  250 fps=0.7 q=28.5 size=    1792KiB time=00:00:04.13 bitrate=3551.7kbits/s speed=0.0119x elapsed=0:05:46.04    \nframe=  250 fps=0.7 q=28.5 size=    1792KiB time=00:00:04.13 bitrate=3551.7kbits/s speed=0.0119x elapsed=0:05:46.58    \nframe=  250 fps=0.7 q=28.5 size=    1792KiB time=00:00:04.13 bitrate=3551.7kbits/s speed=0.0119x elapsed=0:05:47.10    \nframe=  251 fps=0.7 q=20.2 size=    1792KiB time=00:00:04.15 bitrate=3537.4kbits/s speed=0.0119x elapsed=0:05:47.62    \nframe=  251 fps=0.7 q=20.2 size=    1792KiB time=00:00:04.15 bitrate=3537.4kbits/s speed=0.0119x elapsed=0:05:48.15    \nframe=  251 fps=0.7 q=20.2 size=    1792KiB time=00:00:04.15 bitrate=3537.4kbits/s speed=0.0119x elapsed=0:05:48.71    \nframe=  251 fps=0.7 q=20.2 size=    1792KiB time=00:00:04.15 bitrate=3537.4kbits/s speed=0.0119x elapsed=0:05:49.24    \nframe=  251 fps=0.7 q=20.2 size=    1792KiB time=00:00:04.15 bitrate=3537.4kbits/s speed=0.0119x elapsed=0:05:49.76    \nframe=  252 fps=0.7 q=21.8 size=    2048KiB time=00:00:04.16 bitrate=4026.6kbits/s speed=0.0119x elapsed=0:05:50.28    \nframe=  253 fps=0.7 q=25.8 size=    2048KiB time=00:00:04.18 bitrate=4010.6kbits/s speed=0.0119x elapsed=0:05:50.79    \nframe=  254 fps=0.7 q=28.6 size=    2048KiB time=00:00:04.20 bitrate=3994.7kbits/s speed=0.012x elapsed=0:05:51.32    \nframe=  254 fps=0.7 q=28.6 size=    2048KiB time=00:00:04.20 bitrate=3994.7kbits/s speed=0.0119x elapsed=0:05:51.85    \nframe=  255 fps=0.7 q=28.8 size=    2048KiB time=00:00:04.21 bitrate=3978.9kbits/s speed=0.012x elapsed=0:05:52.36    \nframe=  255 fps=0.7 q=28.8 size=    2048KiB time=00:00:04.21 bitrate=3978.9kbits/s speed=0.0119x elapsed=0:05:52.92    \nframe=  255 fps=0.7 q=28.8 size=    2048KiB time=00:00:04.21 bitrate=3978.9kbits/s speed=0.0119x elapsed=0:05:53.46    \nframe=  256 fps=0.7 q=21.9 size=    2048KiB time=00:00:04.23 bitrate=3963.2kbits/s speed=0.012x elapsed=0:05:53.99    \nframe=  256 fps=0.7 q=21.9 size=    2048KiB time=00:00:04.23 bitrate=3963.2kbits/s speed=0.0119x elapsed=0:05:54.50    \nframe=  256 fps=0.7 q=21.9 size=    2048KiB time=00:00:04.23 bitrate=3963.2kbits/s speed=0.0119x elapsed=0:05:55.01    \nframe=  257 fps=0.7 q=22.9 size=    2048KiB time=00:00:04.25 bitrate=3947.7kbits/s speed=0.012x elapsed=0:05:55.54    \nframe=  257 fps=0.7 q=22.9 size=    2048KiB time=00:00:04.25 bitrate=3947.7kbits/s speed=0.0119x elapsed=0:05:56.07    \nframe=  258 fps=0.7 q=29.0 size=    2048KiB time=00:00:04.26 bitrate=3932.2kbits/s speed=0.012x elapsed=0:05:56.61    \nframe=  259 fps=0.7 q=28.8 size=    2048KiB time=00:00:04.28 bitrate=3916.9kbits/s speed=0.012x elapsed=0:05:57.16    \nframe=  259 fps=0.7 q=28.8 size=    2048KiB time=00:00:04.28 bitrate=3916.9kbits/s speed=0.012x elapsed=0:05:57.67    \nframe=  260 fps=0.7 q=28.6 size=    2048KiB time=00:00:04.30 bitrate=3901.8kbits/s speed=0.012x elapsed=0:05:58.20    \nframe=  260 fps=0.7 q=28.6 size=    2048KiB time=00:00:04.30 bitrate=3901.8kbits/s speed=0.012x elapsed=0:05:58.74    \nframe=  260 fps=0.7 q=28.6 size=    2048KiB time=00:00:04.30 bitrate=3901.8kbits/s speed=0.012x elapsed=0:05:59.27    \nframe=  261 fps=0.7 q=22.1 size=    2048KiB time=00:00:04.31 bitrate=3886.7kbits/s speed=0.012x elapsed=0:05:59.80    \nframe=  261 fps=0.7 q=22.1 size=    2048KiB time=00:00:04.31 bitrate=3886.7kbits/s speed=0.012x elapsed=0:06:00.31    \nframe=  262 fps=0.7 q=23.0 size=    2048KiB time=00:00:04.33 bitrate=3871.7kbits/s speed=0.012x elapsed=0:06:00.84    \nframe=  262 fps=0.7 q=23.0 size=    2048KiB time=00:00:04.33 bitrate=3871.7kbits/s speed=0.012x elapsed=0:06:01.38    \nframe=  262 fps=0.7 q=23.0 size=    2048KiB time=00:00:04.33 bitrate=3871.7kbits/s speed=0.012x elapsed=0:06:01.92    \nframe=  262 fps=0.7 q=23.0 size=    2048KiB time=00:00:04.33 bitrate=3871.7kbits/s speed=0.012x elapsed=0:06:02.44    \nframe=  263 fps=0.7 q=28.8 size=    2048KiB time=00:00:04.35 bitrate=3856.9kbits/s speed=0.012x elapsed=0:06:02.96    \nframe=  263 fps=0.7 q=28.8 size=    2048KiB time=00:00:04.35 bitrate=3856.9kbits/s speed=0.012x elapsed=0:06:03.48    \nframe=  264 fps=0.7 q=28.7 size=    2048KiB time=00:00:04.36 bitrate=3842.2kbits/s speed=0.012x elapsed=0:06:04.02    \nframe=  264 fps=0.7 q=28.7 size=    2048KiB time=00:00:04.36 bitrate=3842.2kbits/s speed=0.012x elapsed=0:06:04.55    \nframe=  265 fps=0.7 q=28.5 size=    2048KiB time=00:00:04.38 bitrate=3827.6kbits/s speed=0.012x elapsed=0:06:05.06    \nframe=  265 fps=0.7 q=28.5 size=    2048KiB time=00:00:04.38 bitrate=3827.6kbits/s speed=0.012x elapsed=0:06:05.58    \nframe=  265 fps=0.7 q=28.5 size=    2048KiB time=00:00:04.38 bitrate=3827.6kbits/s speed=0.012x elapsed=0:06:06.10    \nframe=  266 fps=0.7 q=22.2 size=    2048KiB time=00:00:04.40 bitrate=3813.1kbits/s speed=0.012x elapsed=0:06:06.62    \nframe=  266 fps=0.7 q=22.2 size=    2048KiB time=00:00:04.40 bitrate=3813.1kbits/s speed=0.012x elapsed=0:06:07.15    \nframe=  266 fps=0.7 q=22.2 size=    2048KiB time=00:00:04.40 bitrate=3813.1kbits/s speed=0.012x elapsed=0:06:07.67    \nframe=  267 fps=0.7 q=27.1 size=    2048KiB time=00:00:04.41 bitrate=3798.7kbits/s speed=0.012x elapsed=0:06:08.17    \nframe=  268 fps=0.7 q=29.4 size=    2048KiB time=00:00:04.43 bitrate=3784.4kbits/s speed=0.012x elapsed=0:06:08.69    \nframe=  268 fps=0.7 q=29.4 size=    2048KiB time=00:00:04.43 bitrate=3784.4kbits/s speed=0.012x elapsed=0:06:09.21    \nframe=  269 fps=0.7 q=29.5 size=    2048KiB time=00:00:04.45 bitrate=3770.2kbits/s speed=0.012x elapsed=0:06:09.75    \nframe=  269 fps=0.7 q=29.5 size=    2048KiB time=00:00:04.45 bitrate=3770.2kbits/s speed=0.012x elapsed=0:06:10.31    \nframe=  270 fps=0.7 q=22.4 size=    2048KiB time=00:00:04.46 bitrate=3756.2kbits/s speed=0.012x elapsed=0:06:10.85    \nframe=  270 fps=0.7 q=22.4 size=    2048KiB time=00:00:04.46 bitrate=3756.2kbits/s speed=0.012x elapsed=0:06:11.36    \nframe=  270 fps=0.7 q=22.4 size=    2048KiB time=00:00:04.46 bitrate=3756.2kbits/s speed=0.012x elapsed=0:06:11.90    \nframe=  271 fps=0.7 q=25.7 size=    2048KiB time=00:00:04.48 bitrate=3742.2kbits/s speed=0.012x elapsed=0:06:12.43    \nframe=  272 fps=0.7 q=28.9 size=    2048KiB time=00:00:04.50 bitrate=3728.3kbits/s speed=0.0121x elapsed=0:06:12.94    \nframe=  274 fps=0.7 q=28.6 size=    2048KiB time=00:00:04.53 bitrate=3700.9kbits/s speed=0.0121x elapsed=0:06:13.45    \nframe=  274 fps=0.7 q=28.6 size=    2048KiB time=00:00:04.53 bitrate=3700.9kbits/s speed=0.0121x elapsed=0:06:13.98    \nframe=  274 fps=0.7 q=28.6 size=    2048KiB time=00:00:04.53 bitrate=3700.9kbits/s speed=0.0121x elapsed=0:06:14.48    \nframe=  274 fps=0.7 q=28.6 size=    2048KiB time=00:00:04.53 bitrate=3700.9kbits/s speed=0.0121x elapsed=0:06:15.01    \nframe=  274 fps=0.7 q=28.6 size=    2048KiB time=00:00:04.53 bitrate=3700.9kbits/s speed=0.0121x elapsed=0:06:15.54    \nframe=  274 fps=0.7 q=28.6 size=    2048KiB time=00:00:04.53 bitrate=3700.9kbits/s speed=0.0121x elapsed=0:06:16.09    \nframe=  274 fps=0.7 q=28.6 size=    2048KiB time=00:00:04.53 bitrate=3700.9kbits/s speed=0.012x elapsed=0:06:16.63    \nframe=  275 fps=0.7 q=22.4 size=    2048KiB time=00:00:04.55 bitrate=3687.4kbits/s speed=0.0121x elapsed=0:06:17.22    \nframe=  276 fps=0.7 q=25.7 size=    2048KiB time=00:00:04.56 bitrate=3673.9kbits/s speed=0.0121x elapsed=0:06:17.73    \nframe=  276 fps=0.7 q=25.7 size=    2048KiB time=00:00:04.56 bitrate=3673.9kbits/s speed=0.0121x elapsed=0:06:18.26    \nframe=  277 fps=0.7 q=28.9 size=    2304KiB time=00:00:04.58 bitrate=4118.1kbits/s speed=0.0121x elapsed=0:06:18.80    \nframe=  277 fps=0.7 q=28.9 size=    2304KiB time=00:00:04.58 bitrate=4118.1kbits/s speed=0.0121x elapsed=0:06:19.32    \nframe=  277 fps=0.7 q=28.9 size=    2304KiB time=00:00:04.58 bitrate=4118.1kbits/s speed=0.0121x elapsed=0:06:19.86    \nframe=  277 fps=0.7 q=28.9 size=    2304KiB time=00:00:04.58 bitrate=4118.1kbits/s speed=0.012x elapsed=0:06:20.40    \nframe=  278 fps=0.7 q=28.3 size=    2304KiB time=00:00:04.60 bitrate=4103.2kbits/s speed=0.0121x elapsed=0:06:20.93    \nframe=  278 fps=0.7 q=28.3 size=    2304KiB time=00:00:04.60 bitrate=4103.2kbits/s speed=0.0121x elapsed=0:06:21.48    \nframe=  279 fps=0.7 q=22.3 size=    2304KiB time=00:00:04.61 bitrate=4088.4kbits/s speed=0.0121x elapsed=0:06:21.99    \nframe=  280 fps=0.7 q=25.3 size=    2304KiB time=00:00:04.63 bitrate=4073.7kbits/s speed=0.0121x elapsed=0:06:22.50    \nframe=  281 fps=0.7 q=28.7 size=    2304KiB time=00:00:04.65 bitrate=4059.1kbits/s speed=0.0121x elapsed=0:06:23.01    \nframe=  282 fps=0.7 q=28.4 size=    2304KiB time=00:00:04.66 bitrate=4044.6kbits/s speed=0.0122x elapsed=0:06:23.53    \nframe=  283 fps=0.7 q=28.3 size=    2304KiB time=00:00:04.68 bitrate=4030.2kbits/s speed=0.0122x elapsed=0:06:24.05    \nframe=  283 fps=0.7 q=28.3 size=    2304KiB time=00:00:04.68 bitrate=4030.2kbits/s speed=0.0122x elapsed=0:06:24.56    \nframe=  284 fps=0.7 q=22.3 size=    2304KiB time=00:00:04.70 bitrate=4015.9kbits/s speed=0.0122x elapsed=0:06:25.08    \nframe=  285 fps=0.7 q=25.6 size=    2304KiB time=00:00:04.71 bitrate=4001.7kbits/s speed=0.0122x elapsed=0:06:25.60    \nframe=  286 fps=0.7 q=28.4 size=    2304KiB time=00:00:04.73 bitrate=3987.6kbits/s speed=0.0123x elapsed=0:06:26.12    \nframe=  287 fps=0.7 q=28.5 size=    2304KiB time=00:00:04.75 bitrate=3973.6kbits/s speed=0.0123x elapsed=0:06:26.62    \nframe=  287 fps=0.7 q=28.5 size=    2304KiB time=00:00:04.75 bitrate=3973.6kbits/s speed=0.0123x elapsed=0:06:27.14    \nframe=  288 fps=0.7 q=22.8 size=    2304KiB time=00:00:04.76 bitrate=3959.7kbits/s speed=0.0123x elapsed=0:06:27.66    \nframe=  288 fps=0.7 q=22.8 size=    2304KiB time=00:00:04.76 bitrate=3959.7kbits/s speed=0.0123x elapsed=0:06:28.18    \nframe=  289 fps=0.7 q=25.8 size=    2304KiB time=00:00:04.78 bitrate=3945.9kbits/s speed=0.0123x elapsed=0:06:28.68    \nframe=  291 fps=0.7 q=28.9 size=    2304KiB time=00:00:04.81 bitrate=3918.6kbits/s speed=0.0124x elapsed=0:06:29.20    \nframe=  292 fps=0.7 q=28.8 size=    2304KiB time=00:00:04.83 bitrate=3905.1kbits/s speed=0.0124x elapsed=0:06:29.72    \nframe=  292 fps=0.7 q=28.8 size=    2304KiB time=00:00:04.83 bitrate=3905.1kbits/s speed=0.0124x elapsed=0:06:30.25    \nframe=  294 fps=0.8 q=26.0 size=    2304KiB time=00:00:04.86 bitrate=3878.4kbits/s speed=0.0125x elapsed=0:06:30.77    \nframe=  294 fps=0.8 q=26.0 size=    2304KiB time=00:00:04.86 bitrate=3878.4kbits/s speed=0.0124x elapsed=0:06:31.29    \nframe=  295 fps=0.8 q=29.3 size=    2304KiB time=00:00:04.88 bitrate=3865.1kbits/s speed=0.0125x elapsed=0:06:31.79    \nframe=  296 fps=0.8 q=29.3 size=    2304KiB time=00:00:04.90 bitrate=3852.0kbits/s speed=0.0125x elapsed=0:06:32.31    \nframe=  297 fps=0.8 q=25.7 size=    2304KiB time=00:00:04.91 bitrate=3838.9kbits/s speed=0.0125x elapsed=0:06:32.83    \n[mp4 @ 0000025f02eb1200] Starting second pass: moving the moov atom to the beginning of the file\n[out#0/mp4 @ 0000025f02eaabc0] video:2523KiB audio:0KiB subtitle:0KiB other streams:0KiB global headers:2KiB muxing overhead: 0.273238%\nframe=  300 fps=0.8 q=29.0 Lsize=    2529KiB time=00:00:04.96 bitrate=4172.1kbits/s speed=0.0126x elapsed=0:06:33.32    \nx265 [info]: frame I:      2, Avg QP:25.34  kb/s: 13152.00\nx265 [info]: frame P:     67, Avg QP:22.11  kb/s: 10203.17\nx265 [info]: frame B:    231, Avg QP:27.44  kb/s: 2291.74 \nx265 [info]: Weighted P-Frames: Y:0.0% UV:0.0%\n\nencoded 300 frames in 393.12s (0.76 fps), 4131.03 kb/s, Avg QP:26.24\n",
  "seconds": 393.5636959075928,
  "probe_out": {}
}